<svg xmlns="http://www.w3.org/2000/svg" xmlns:xlink="http://www.w3.org/1999/xlink" width="1850" height="919" version="1.1">
<style type="text/css">
.l0{
 fill: #000000;
  stroke: #000000;
  stroke-linecap:round;
  stroke-linejoin:round;
  stroke-width: 1.05044;
}
.l1{
 fill: #00ccee;
  stroke: #00ccee;
  stroke-linecap:round;
  stroke-linejoin:round;
  stroke-width: 1.05044;
}
.l2{
  fill: none;
  stroke: #3f3f3f;
  stroke-linecap:round;
  stroke-linejoin:round;
  stroke-width: 1.05044;
}
.l3{
 fill: #cccccc; fill-opacity: 0.5;
  stroke: #cccccc;
  stroke-linecap:round;
  stroke-linejoin:round;
  stroke-width: 1.05044;
}
.l4{
 fill: #88dd00;
  stroke: #88dd00;
  stroke-linecap:round;
  stroke-linejoin:round;
  stroke-width: 1.05044;
}
.l5{
 fill: #bb2200;
  stroke: #bb2200;
  stroke-linecap:round;
  stroke-linejoin:round;
  stroke-width: 1.05044;
}
.l6{
 fill: #00ccee; fill-opacity: 0.5;
  stroke: #00ccee;
  stroke-linecap:round;
  stroke-linejoin:round;
  stroke-width: 1.05044;
}
.l7{
 fill: #ff0000; fill-opacity: 0.5;
  stroke: #ff0000;
  stroke-linecap:round;
  stroke-linejoin:round;
  stroke-width: 1.05044;
}
.l8{
 fill: #ffff00; fill-opacity: 0.5;
  stroke: #ffff00;
  stroke-linecap:round;
  stroke-linejoin:round;
  stroke-width: 1.05044;
}
.l9{
 fill: #ffffff; fill-opacity: 0.5;
  stroke: #ffffff;
  stroke-linecap:round;
  stroke-linejoin:round;
  stroke-width: 1.05044;
}
.l10{
 fill: #ff00ff;
  stroke: #ff00ff;
  stroke-linecap:round;
  stroke-linejoin:round;
  stroke-width: 1.05044;
}
.l11{
 fill: #00ff00; fill-opacity: 0.5;
  stroke: #00ff00;
  stroke-linecap:round;
  stroke-linejoin:round;
  stroke-width: 1.05044;
}
.l12{
 fill: #0044dd; fill-opacity: 0.5;
  stroke: #0044dd;
  stroke-linecap:round;
  stroke-linejoin:round;
  stroke-width: 1.05044;
}
.l13{
 fill: #aaaa00; fill-opacity: 0.5;
  stroke: #aaaa00;
  stroke-linecap:round;
  stroke-linejoin:round;
  stroke-width: 1.05044;
}
.l14{
  fill: none;
  stroke: #aaccaa;
  stroke-linecap:round;
  stroke-linejoin:round;
  stroke-width: 1.05044;
}
.l15{
 fill: #ff7777; fill-opacity: 0.5;
  stroke: #ff7777;
  stroke-linecap:round;
  stroke-linejoin:round;
  stroke-width: 1.05044;
}
.l16{
 fill: #bfff81; fill-opacity: 0.5;
  stroke: #bfff81;
  stroke-linecap:round;
  stroke-linejoin:round;
  stroke-width: 1.05044;
}
.l17{
  fill: none;
  stroke: #00ffcc;
  stroke-linecap:round;
  stroke-linejoin:round;
  stroke-width: 1.05044;
}
.l18{
 fill: #ce0097; fill-opacity: 0.5;
  stroke: #ce0097;
  stroke-linecap:round;
  stroke-linejoin:round;
  stroke-width: 1.05044;
}
.l19{
  fill: none;
  stroke: #d2d46b;
  stroke-linecap:round;
  stroke-linejoin:round;
  stroke-width: 1.05044;
}
.l20{
  fill: none;
  stroke: #ef6158;
  stroke-linecap:round;
  stroke-linejoin:round;
  stroke-width: 1.05044;
}
.l21{
  fill: none;
  stroke: #fdb200;
  stroke-linecap:round;
  stroke-linejoin:round;
  stroke-width: 1.05044;
}
text {font-family: Sans-Serif;}
</style>
<rect class="l0" x="0" y="0" width="1850" height="919"/>
<text fill="#00ccee"  xml:space="preserve" font-size="16.6903" transform="translate(46.0594, 675.425)" >Vcn</text>
<text fill="#00ccee"  xml:space="preserve" font-size="16.6903" transform="translate(36.8437, 352.335)" >Vout</text>
<text fill="#00ccee"  xml:space="preserve" font-size="16.6903" transform="translate(37.9956, 615.553)" >GND</text>
<text fill="#00ccee"  xml:space="preserve" font-size="16.6903" transform="translate(55.0594, 412.816)" >V1</text>
<text fill="#00ccee"  xml:space="preserve" font-size="16.6903" transform="translate(55.0594, 393.363)" >V2</text>
<text fill="#00ccee"  xml:space="preserve" font-size="16.6903" transform="translate(44.0594, 371.788)" >Vbn</text>
<text fill="#00ccee"  xml:space="preserve" font-size="16.6903" transform="translate(44.0594, 228.016)" >Vbp</text>
<text fill="#00ccee"  xml:space="preserve" font-size="16.6903" transform="translate(38.9956, 187.596)" >VDD</text>
<text fill="#00ccee"  xml:space="preserve" font-size="16.6903" transform="translate(46.0594, 208.564)" >Vcp</text>
<text fill="#cccccc"  xml:space="preserve" font-size="10.1153" transform="translate(261.794, 737.276) rotate(270)" >M1</text>
<text fill="#cccccc"  xml:space="preserve" font-size="10.1153" transform="translate(247.205, 771.276) rotate(270)" >nfet_01v8</text>
<text fill="#aaaa00"  xml:space="preserve" font-size="10.1153" transform="translate(232.615, 770.276) rotate(270)" >1 x 3 / 0.5</text>
<text fill="#cccccc"  xml:space="preserve" font-size="10.1153" transform="translate(524.404, 737.276) rotate(270)" >M2</text>
<text fill="#cccccc"  xml:space="preserve" font-size="10.1153" transform="translate(509.814, 771.276) rotate(270)" >nfet_01v8</text>
<text fill="#aaaa00"  xml:space="preserve" font-size="10.1153" transform="translate(495.225, 770.276) rotate(270)" >1 x 3 / 0.5</text>
<text fill="#cccccc"  xml:space="preserve" font-size="10.1153" transform="translate(436.867, 737.276) rotate(270)" >M3</text>
<text fill="#cccccc"  xml:space="preserve" font-size="10.1153" transform="translate(422.278, 771.276) rotate(270)" >nfet_01v8</text>
<text fill="#aaaa00"  xml:space="preserve" font-size="10.1153" transform="translate(407.688, 770.276) rotate(270)" >1 x 3 / 0.5</text>
<text fill="#cccccc"  xml:space="preserve" font-size="10.1153" transform="translate(349.331, 737.276) rotate(270)" >M4</text>
<text fill="#cccccc"  xml:space="preserve" font-size="10.1153" transform="translate(334.741, 771.276) rotate(270)" >nfet_01v8</text>
<text fill="#aaaa00"  xml:space="preserve" font-size="10.1153" transform="translate(320.152, 770.276) rotate(270)" >1 x 3 / 0.5</text>
<text fill="#cccccc"  xml:space="preserve" font-size="10.1153" transform="translate(859.563, 737.276) rotate(270)" >M5</text>
<text fill="#cccccc"  xml:space="preserve" font-size="10.1153" transform="translate(874.152, 771.276) rotate(270)" >nfet_01v8</text>
<text fill="#aaaa00"  xml:space="preserve" font-size="10.1153" transform="translate(888.742, 770.276) rotate(270)" >1 x 3 / 0.5</text>
<text fill="#cccccc"  xml:space="preserve" font-size="10.1153" transform="translate(596.953, 737.276) rotate(270)" >M6</text>
<text fill="#cccccc"  xml:space="preserve" font-size="10.1153" transform="translate(611.543, 771.276) rotate(270)" >nfet_01v8</text>
<text fill="#aaaa00"  xml:space="preserve" font-size="10.1153" transform="translate(626.132, 770.276) rotate(270)" >1 x 3 / 0.5</text>
<text fill="#cccccc"  xml:space="preserve" font-size="10.1153" transform="translate(684.49, 743.276) rotate(270)" >M10</text>
<text fill="#cccccc"  xml:space="preserve" font-size="10.1153" transform="translate(699.079, 771.276) rotate(270)" >nfet_01v8</text>
<text fill="#aaaa00"  xml:space="preserve" font-size="10.1153" transform="translate(713.669, 770.276) rotate(270)" >1 x 3 / 0.5</text>
<text fill="#cccccc"  xml:space="preserve" font-size="10.1153" transform="translate(772.026, 743.276) rotate(270)" >M11</text>
<text fill="#cccccc"  xml:space="preserve" font-size="10.1153" transform="translate(786.616, 771.276) rotate(270)" >nfet_01v8</text>
<text fill="#aaaa00"  xml:space="preserve" font-size="10.1153" transform="translate(801.205, 770.276) rotate(270)" >1 x 3 / 0.5</text>
<text fill="#cccccc"  xml:space="preserve" font-size="10.1153" transform="translate(859.563, 558.476) rotate(270)" >M12</text>
<text fill="#cccccc"  xml:space="preserve" font-size="10.1153" transform="translate(874.152, 586.476) rotate(270)" >nfet_01v8</text>
<text fill="#aaaa00"  xml:space="preserve" font-size="10.1153" transform="translate(888.742, 585.476) rotate(270)" >1 x 3 / 0.5</text>
<text fill="#cccccc"  xml:space="preserve" font-size="10.1153" transform="translate(718.929, 558.476) rotate(270)" >M13</text>
<text fill="#cccccc"  xml:space="preserve" font-size="10.1153" transform="translate(704.34, 586.476) rotate(270)" >nfet_01v8</text>
<text fill="#aaaa00"  xml:space="preserve" font-size="10.1153" transform="translate(689.751, 585.476) rotate(270)" >1 x 3 / 0.5</text>
<text fill="#cccccc"  xml:space="preserve" font-size="10.1153" transform="translate(631.393, 558.476) rotate(270)" >M14</text>
<text fill="#cccccc"  xml:space="preserve" font-size="10.1153" transform="translate(616.803, 586.476) rotate(270)" >nfet_01v8</text>
<text fill="#aaaa00"  xml:space="preserve" font-size="10.1153" transform="translate(602.214, 585.476) rotate(270)" >1 x 3 / 0.5</text>
<text fill="#cccccc"  xml:space="preserve" font-size="10.1153" transform="translate(781.753, 558.476) rotate(270)" >M15</text>
<text fill="#cccccc"  xml:space="preserve" font-size="10.1153" transform="translate(796.342, 586.476) rotate(270)" >nfet_01v8</text>
<text fill="#aaaa00"  xml:space="preserve" font-size="10.1153" transform="translate(810.931, 585.476) rotate(270)" >1 x 3 / 0.5</text>
<text fill="#cccccc"  xml:space="preserve" font-size="10.1153" transform="translate(528.869, 558.476) rotate(270)" >M16</text>
<text fill="#cccccc"  xml:space="preserve" font-size="10.1153" transform="translate(543.459, 586.476) rotate(270)" >nfet_01v8</text>
<text fill="#aaaa00"  xml:space="preserve" font-size="10.1153" transform="translate(558.048, 585.476) rotate(270)" >1 x 3 / 0.5</text>
<text fill="#cccccc"  xml:space="preserve" font-size="10.1153" transform="translate(388.236, 558.476) rotate(270)" >M17</text>
<text fill="#cccccc"  xml:space="preserve" font-size="10.1153" transform="translate(373.646, 586.476) rotate(270)" >nfet_01v8</text>
<text fill="#aaaa00"  xml:space="preserve" font-size="10.1153" transform="translate(359.057, 585.476) rotate(270)" >1 x 3 / 0.5</text>
<text fill="#cccccc"  xml:space="preserve" font-size="10.1153" transform="translate(300.699, 558.476) rotate(270)" >M18</text>
<text fill="#cccccc"  xml:space="preserve" font-size="10.1153" transform="translate(286.11, 586.476) rotate(270)" >nfet_01v8</text>
<text fill="#aaaa00"  xml:space="preserve" font-size="10.1153" transform="translate(271.52, 585.476) rotate(270)" >1 x 3 / 0.5</text>
<text fill="#cccccc"  xml:space="preserve" font-size="10.1153" transform="translate(451.059, 558.476) rotate(270)" >M19</text>
<text fill="#cccccc"  xml:space="preserve" font-size="10.1153" transform="translate(465.648, 586.476) rotate(270)" >nfet_01v8</text>
<text fill="#aaaa00"  xml:space="preserve" font-size="10.1153" transform="translate(480.238, 585.476) rotate(270)" >1 x 3 / 0.5</text>
<text fill="#cccccc"  xml:space="preserve" font-size="10.1153" transform="translate(436.469, 286.14) rotate(270)" >M37</text>
<text fill="#cccccc"  xml:space="preserve" font-size="10.1153" transform="translate(451.059, 314.14) rotate(270)" >pfet_01v8</text>
<text fill="#aaaa00"  xml:space="preserve" font-size="10.1153" transform="translate(465.648, 313.14) rotate(270)" >1 x 3 / 0.5</text>
<text fill="#cccccc"  xml:space="preserve" font-size="10.1153" transform="translate(271.123, 286.14) rotate(270)" >M38</text>
<text fill="#cccccc"  xml:space="preserve" font-size="10.1153" transform="translate(285.712, 314.14) rotate(270)" >pfet_01v8</text>
<text fill="#aaaa00"  xml:space="preserve" font-size="10.1153" transform="translate(300.301, 313.14) rotate(270)" >1 x 3 / 0.5</text>
<text fill="#cccccc"  xml:space="preserve" font-size="10.1153" transform="translate(514.28, 286.14) rotate(270)" >M39</text>
<text fill="#cccccc"  xml:space="preserve" font-size="10.1153" transform="translate(528.869, 314.14) rotate(270)" >pfet_01v8</text>
<text fill="#aaaa00"  xml:space="preserve" font-size="10.1153" transform="translate(543.459, 313.14) rotate(270)" >1 x 3 / 0.5</text>
<text fill="#cccccc"  xml:space="preserve" font-size="10.1153" transform="translate(348.933, 286.14) rotate(270)" >M40</text>
<text fill="#cccccc"  xml:space="preserve" font-size="10.1153" transform="translate(363.522, 314.14) rotate(270)" >pfet_01v8</text>
<text fill="#aaaa00"  xml:space="preserve" font-size="10.1153" transform="translate(378.112, 313.14) rotate(270)" >1 x 3 / 0.5</text>
<text fill="#cccccc"  xml:space="preserve" font-size="10.1153" transform="translate(757.437, 286.14) rotate(270)" >M41</text>
<text fill="#cccccc"  xml:space="preserve" font-size="10.1153" transform="translate(772.026, 314.14) rotate(270)" >pfet_01v8</text>
<text fill="#aaaa00"  xml:space="preserve" font-size="10.1153" transform="translate(786.616, 313.14) rotate(270)" >1 x 3 / 0.5</text>
<text fill="#cccccc"  xml:space="preserve" font-size="10.1153" transform="translate(592.09, 286.14) rotate(270)" >M42</text>
<text fill="#cccccc"  xml:space="preserve" font-size="10.1153" transform="translate(606.679, 314.14) rotate(270)" >pfet_01v8</text>
<text fill="#aaaa00"  xml:space="preserve" font-size="10.1153" transform="translate(621.269, 313.14) rotate(270)" >1 x 3 / 0.5</text>
<text fill="#cccccc"  xml:space="preserve" font-size="10.1153" transform="translate(835.247, 286.14) rotate(270)" >M43</text>
<text fill="#cccccc"  xml:space="preserve" font-size="10.1153" transform="translate(849.837, 314.14) rotate(270)" >pfet_01v8</text>
<text fill="#aaaa00"  xml:space="preserve" font-size="10.1153" transform="translate(864.426, 313.14) rotate(270)" >1 x 3 / 0.5</text>
<text fill="#cccccc"  xml:space="preserve" font-size="10.1153" transform="translate(669.9, 286.14) rotate(270)" >M44</text>
<text fill="#cccccc"  xml:space="preserve" font-size="10.1153" transform="translate(684.49, 314.14) rotate(270)" >pfet_01v8</text>
<text fill="#aaaa00"  xml:space="preserve" font-size="10.1153" transform="translate(699.079, 313.14) rotate(270)" >1 x 3 / 0.5</text>
<text fill="#cccccc"  xml:space="preserve" font-size="10.1153" transform="translate(203.436, 737.276) rotate(270)" >M7</text>
<text fill="#cccccc"  xml:space="preserve" font-size="10.1153" transform="translate(188.847, 771.276) rotate(270)" >nfet_01v8</text>
<text fill="#aaaa00"  xml:space="preserve" font-size="10.1153" transform="translate(174.257, 770.276) rotate(270)" >1 x 3 / 0.5</text>
<text fill="#cccccc"  xml:space="preserve" font-size="10.1153" transform="translate(203.436, 552.476) rotate(270)" >M8</text>
<text fill="#cccccc"  xml:space="preserve" font-size="10.1153" transform="translate(188.847, 586.476) rotate(270)" >nfet_01v8</text>
<text fill="#aaaa00"  xml:space="preserve" font-size="10.1153" transform="translate(174.257, 585.476) rotate(270)" >1 x 3 / 0.5</text>
<text fill="#cccccc"  xml:space="preserve" font-size="10.1153" transform="translate(173.86, 280.14) rotate(270)" >M9</text>
<text fill="#cccccc"  xml:space="preserve" font-size="10.1153" transform="translate(188.449, 314.14) rotate(270)" >pfet_01v8</text>
<text fill="#aaaa00"  xml:space="preserve" font-size="10.1153" transform="translate(203.039, 313.14) rotate(270)" >1 x 3 / 0.5</text>
<text fill="#cccccc"  xml:space="preserve" font-size="10.1153" transform="translate(1666.84, 743.276) rotate(270)" >M20</text>
<text fill="#cccccc"  xml:space="preserve" font-size="10.1153" transform="translate(1681.43, 771.276) rotate(270)" >nfet_01v8</text>
<text fill="#aaaa00"  xml:space="preserve" font-size="10.1153" transform="translate(1696.02, 770.276) rotate(270)" >1 x 3 / 0.5</text>
<text fill="#cccccc"  xml:space="preserve" font-size="10.1153" transform="translate(1404.24, 743.276) rotate(270)" >M21</text>
<text fill="#cccccc"  xml:space="preserve" font-size="10.1153" transform="translate(1418.82, 771.276) rotate(270)" >nfet_01v8</text>
<text fill="#aaaa00"  xml:space="preserve" font-size="10.1153" transform="translate(1433.41, 770.276) rotate(270)" >1 x 3 / 0.5</text>
<text fill="#cccccc"  xml:space="preserve" font-size="10.1153" transform="translate(1491.77, 743.276) rotate(270)" >M22</text>
<text fill="#cccccc"  xml:space="preserve" font-size="10.1153" transform="translate(1506.36, 771.276) rotate(270)" >nfet_01v8</text>
<text fill="#aaaa00"  xml:space="preserve" font-size="10.1153" transform="translate(1520.95, 770.276) rotate(270)" >1 x 3 / 0.5</text>
<text fill="#cccccc"  xml:space="preserve" font-size="10.1153" transform="translate(1579.31, 743.276) rotate(270)" >M23</text>
<text fill="#cccccc"  xml:space="preserve" font-size="10.1153" transform="translate(1593.9, 771.276) rotate(270)" >nfet_01v8</text>
<text fill="#aaaa00"  xml:space="preserve" font-size="10.1153" transform="translate(1608.49, 770.276) rotate(270)" >1 x 3 / 0.5</text>
<text fill="#cccccc"  xml:space="preserve" font-size="10.1153" transform="translate(1069.08, 743.276) rotate(270)" >M24</text>
<text fill="#cccccc"  xml:space="preserve" font-size="10.1153" transform="translate(1054.49, 771.276) rotate(270)" >nfet_01v8</text>
<text fill="#aaaa00"  xml:space="preserve" font-size="10.1153" transform="translate(1039.9, 770.276) rotate(270)" >1 x 3 / 0.5</text>
<text fill="#cccccc"  xml:space="preserve" font-size="10.1153" transform="translate(1331.69, 743.276) rotate(270)" >M25</text>
<text fill="#cccccc"  xml:space="preserve" font-size="10.1153" transform="translate(1317.1, 771.276) rotate(270)" >nfet_01v8</text>
<text fill="#aaaa00"  xml:space="preserve" font-size="10.1153" transform="translate(1302.51, 770.276) rotate(270)" >1 x 3 / 0.5</text>
<text fill="#cccccc"  xml:space="preserve" font-size="10.1153" transform="translate(1244.15, 743.276) rotate(270)" >M26</text>
<text fill="#cccccc"  xml:space="preserve" font-size="10.1153" transform="translate(1229.56, 771.276) rotate(270)" >nfet_01v8</text>
<text fill="#aaaa00"  xml:space="preserve" font-size="10.1153" transform="translate(1214.97, 770.276) rotate(270)" >1 x 3 / 0.5</text>
<text fill="#cccccc"  xml:space="preserve" font-size="10.1153" transform="translate(1156.61, 743.276) rotate(270)" >M27</text>
<text fill="#cccccc"  xml:space="preserve" font-size="10.1153" transform="translate(1142.02, 771.276) rotate(270)" >nfet_01v8</text>
<text fill="#aaaa00"  xml:space="preserve" font-size="10.1153" transform="translate(1127.43, 770.276) rotate(270)" >1 x 3 / 0.5</text>
<text fill="#cccccc"  xml:space="preserve" font-size="10.1153" transform="translate(1069.08, 558.476) rotate(270)" >M28</text>
<text fill="#cccccc"  xml:space="preserve" font-size="10.1153" transform="translate(1054.49, 586.476) rotate(270)" >nfet_01v8</text>
<text fill="#aaaa00"  xml:space="preserve" font-size="10.1153" transform="translate(1039.9, 585.476) rotate(270)" >1 x 3 / 0.5</text>
<text fill="#cccccc"  xml:space="preserve" font-size="10.1153" transform="translate(1209.71, 558.476) rotate(270)" >M29</text>
<text fill="#cccccc"  xml:space="preserve" font-size="10.1153" transform="translate(1224.3, 586.476) rotate(270)" >nfet_01v8</text>
<text fill="#aaaa00"  xml:space="preserve" font-size="10.1153" transform="translate(1238.89, 585.476) rotate(270)" >1 x 3 / 0.5</text>
<text fill="#cccccc"  xml:space="preserve" font-size="10.1153" transform="translate(1297.25, 558.476) rotate(270)" >M30</text>
<text fill="#cccccc"  xml:space="preserve" font-size="10.1153" transform="translate(1311.84, 586.476) rotate(270)" >nfet_01v8</text>
<text fill="#aaaa00"  xml:space="preserve" font-size="10.1153" transform="translate(1326.42, 585.476) rotate(270)" >1 x 3 / 0.5</text>
<text fill="#cccccc"  xml:space="preserve" font-size="10.1153" transform="translate(1146.89, 558.476) rotate(270)" >M31</text>
<text fill="#cccccc"  xml:space="preserve" font-size="10.1153" transform="translate(1132.3, 586.476) rotate(270)" >nfet_01v8</text>
<text fill="#aaaa00"  xml:space="preserve" font-size="10.1153" transform="translate(1117.71, 585.476) rotate(270)" >1 x 3 / 0.5</text>
<text fill="#cccccc"  xml:space="preserve" font-size="10.1153" transform="translate(1399.77, 558.476) rotate(270)" >M32</text>
<text fill="#cccccc"  xml:space="preserve" font-size="10.1153" transform="translate(1385.18, 586.476) rotate(270)" >nfet_01v8</text>
<text fill="#aaaa00"  xml:space="preserve" font-size="10.1153" transform="translate(1370.59, 585.476) rotate(270)" >1 x 3 / 0.5</text>
<text fill="#cccccc"  xml:space="preserve" font-size="10.1153" transform="translate(1540.4, 558.476) rotate(270)" >M33</text>
<text fill="#cccccc"  xml:space="preserve" font-size="10.1153" transform="translate(1554.99, 586.476) rotate(270)" >nfet_01v8</text>
<text fill="#aaaa00"  xml:space="preserve" font-size="10.1153" transform="translate(1569.58, 585.476) rotate(270)" >1 x 3 / 0.5</text>
<text fill="#cccccc"  xml:space="preserve" font-size="10.1153" transform="translate(1627.94, 558.476) rotate(270)" >M34</text>
<text fill="#cccccc"  xml:space="preserve" font-size="10.1153" transform="translate(1642.53, 586.476) rotate(270)" >nfet_01v8</text>
<text fill="#aaaa00"  xml:space="preserve" font-size="10.1153" transform="translate(1657.12, 585.476) rotate(270)" >1 x 3 / 0.5</text>
<text fill="#cccccc"  xml:space="preserve" font-size="10.1153" transform="translate(1477.58, 558.476) rotate(270)" >M35</text>
<text fill="#cccccc"  xml:space="preserve" font-size="10.1153" transform="translate(1462.99, 586.476) rotate(270)" >nfet_01v8</text>
<text fill="#aaaa00"  xml:space="preserve" font-size="10.1153" transform="translate(1448.4, 585.476) rotate(270)" >1 x 3 / 0.5</text>
<text fill="#cccccc"  xml:space="preserve" font-size="10.1153" transform="translate(1492.17, 286.14) rotate(270)" >M36</text>
<text fill="#cccccc"  xml:space="preserve" font-size="10.1153" transform="translate(1477.58, 314.14) rotate(270)" >pfet_01v8</text>
<text fill="#aaaa00"  xml:space="preserve" font-size="10.1153" transform="translate(1462.99, 313.14) rotate(270)" >1 x 3 / 0.5</text>
<text fill="#cccccc"  xml:space="preserve" font-size="10.1153" transform="translate(1657.52, 286.14) rotate(270)" >M45</text>
<text fill="#cccccc"  xml:space="preserve" font-size="10.1153" transform="translate(1642.93, 314.14) rotate(270)" >pfet_01v8</text>
<text fill="#aaaa00"  xml:space="preserve" font-size="10.1153" transform="translate(1628.34, 313.14) rotate(270)" >1 x 3 / 0.5</text>
<text fill="#cccccc"  xml:space="preserve" font-size="10.1153" transform="translate(1414.36, 286.14) rotate(270)" >M46</text>
<text fill="#cccccc"  xml:space="preserve" font-size="10.1153" transform="translate(1399.77, 314.14) rotate(270)" >pfet_01v8</text>
<text fill="#aaaa00"  xml:space="preserve" font-size="10.1153" transform="translate(1385.18, 313.14) rotate(270)" >1 x 3 / 0.5</text>
<text fill="#cccccc"  xml:space="preserve" font-size="10.1153" transform="translate(1579.71, 286.14) rotate(270)" >M47</text>
<text fill="#cccccc"  xml:space="preserve" font-size="10.1153" transform="translate(1565.12, 314.14) rotate(270)" >pfet_01v8</text>
<text fill="#aaaa00"  xml:space="preserve" font-size="10.1153" transform="translate(1550.53, 313.14) rotate(270)" >1 x 3 / 0.5</text>
<text fill="#cccccc"  xml:space="preserve" font-size="10.1153" transform="translate(1171.2, 286.14) rotate(270)" >M48</text>
<text fill="#cccccc"  xml:space="preserve" font-size="10.1153" transform="translate(1156.61, 314.14) rotate(270)" >pfet_01v8</text>
<text fill="#aaaa00"  xml:space="preserve" font-size="10.1153" transform="translate(1142.02, 313.14) rotate(270)" >1 x 3 / 0.5</text>
<text fill="#cccccc"  xml:space="preserve" font-size="10.1153" transform="translate(1336.55, 286.14) rotate(270)" >M49</text>
<text fill="#cccccc"  xml:space="preserve" font-size="10.1153" transform="translate(1321.96, 314.14) rotate(270)" >pfet_01v8</text>
<text fill="#aaaa00"  xml:space="preserve" font-size="10.1153" transform="translate(1307.37, 313.14) rotate(270)" >1 x 3 / 0.5</text>
<text fill="#cccccc"  xml:space="preserve" font-size="10.1153" transform="translate(1093.39, 286.14) rotate(270)" >M50</text>
<text fill="#cccccc"  xml:space="preserve" font-size="10.1153" transform="translate(1078.8, 314.14) rotate(270)" >pfet_01v8</text>
<text fill="#aaaa00"  xml:space="preserve" font-size="10.1153" transform="translate(1064.21, 313.14) rotate(270)" >1 x 3 / 0.5</text>
<text fill="#cccccc"  xml:space="preserve" font-size="10.1153" transform="translate(1258.74, 286.14) rotate(270)" >M51</text>
<text fill="#cccccc"  xml:space="preserve" font-size="10.1153" transform="translate(1244.15, 314.14) rotate(270)" >pfet_01v8</text>
<text fill="#aaaa00"  xml:space="preserve" font-size="10.1153" transform="translate(1229.56, 313.14) rotate(270)" >1 x 3 / 0.5</text>
<text fill="#cccccc"  xml:space="preserve" font-size="10.1153" transform="translate(1725.2, 743.276) rotate(270)" >M52</text>
<text fill="#cccccc"  xml:space="preserve" font-size="10.1153" transform="translate(1739.79, 771.276) rotate(270)" >nfet_01v8</text>
<text fill="#aaaa00"  xml:space="preserve" font-size="10.1153" transform="translate(1754.38, 770.276) rotate(270)" >1 x 3 / 0.5</text>
<text fill="#cccccc"  xml:space="preserve" font-size="10.1153" transform="translate(1725.2, 558.476) rotate(270)" >M53</text>
<text fill="#cccccc"  xml:space="preserve" font-size="10.1153" transform="translate(1739.79, 586.476) rotate(270)" >nfet_01v8</text>
<text fill="#aaaa00"  xml:space="preserve" font-size="10.1153" transform="translate(1754.38, 585.476) rotate(270)" >1 x 3 / 0.5</text>
<text fill="#cccccc"  xml:space="preserve" font-size="10.1153" transform="translate(1754.78, 286.14) rotate(270)" >M54</text>
<text fill="#cccccc"  xml:space="preserve" font-size="10.1153" transform="translate(1740.19, 314.14) rotate(270)" >pfet_01v8</text>
<text fill="#aaaa00"  xml:space="preserve" font-size="10.1153" transform="translate(1725.6, 313.14) rotate(270)" >1 x 3 / 0.5</text>
<path class="l4" d="M265.506 717.413L280.096 717.413"/>
<path class="l4" d="M265.506 702.823L265.506 717.413"/>
<path class="l4" d="M230.856 702.823L270.977 702.823"/>
<path class="l4" d="M236.327 702.823L236.327 717.413"/>
<path class="l4" d="M221.738 717.413L236.327 717.413"/>
<path class="l4" d="M236.327 699.176L265.506 699.176"/>
<path class="l4" d="M250.917 688.234L250.917 699.176"/>
<path class="l4" d="M528.116 717.413L542.705 717.413"/>
<path class="l4" d="M528.116 702.823L528.116 717.413"/>
<path class="l4" d="M493.466 702.823L533.587 702.823"/>
<path class="l4" d="M498.937 702.823L498.937 717.413"/>
<path class="l4" d="M484.348 717.413L498.937 717.413"/>
<path class="l4" d="M498.937 699.176L528.116 699.176"/>
<path class="l4" d="M513.527 688.234L513.527 699.176"/>
<path class="l4" d="M440.579 717.413L455.169 717.413"/>
<path class="l4" d="M440.579 702.823L440.579 717.413"/>
<path class="l4" d="M405.93 702.823L446.05 702.823"/>
<path class="l4" d="M411.401 702.823L411.401 717.413"/>
<path class="l4" d="M396.811 717.413L411.401 717.413"/>
<path class="l4" d="M411.401 699.176L440.579 699.176"/>
<path class="l4" d="M425.99 688.234L425.99 699.176"/>
<path class="l4" d="M353.043 717.413L367.632 717.413"/>
<path class="l4" d="M353.043 702.823L353.043 717.413"/>
<path class="l4" d="M318.393 702.823L358.514 702.823"/>
<path class="l4" d="M323.864 702.823L323.864 717.413"/>
<path class="l4" d="M309.275 717.413L323.864 717.413"/>
<path class="l4" d="M323.864 699.176L353.043 699.176"/>
<path class="l4" d="M338.453 688.234L338.453 699.176"/>
<path class="l4" d="M834.494 717.413L849.083 717.413"/>
<path class="l4" d="M849.083 702.823L849.083 717.413"/>
<path class="l4" d="M843.612 702.823L883.733 702.823"/>
<path class="l4" d="M878.262 702.823L878.262 717.413"/>
<path class="l4" d="M878.262 717.413L892.852 717.413"/>
<path class="l4" d="M849.083 699.176L878.262 699.176"/>
<path class="l4" d="M863.673 688.234L863.673 699.176"/>
<path class="l4" d="M571.884 717.413L586.474 717.413"/>
<path class="l4" d="M586.474 702.823L586.474 717.413"/>
<path class="l4" d="M581.003 702.823L621.124 702.823"/>
<path class="l4" d="M615.653 702.823L615.653 717.413"/>
<path class="l4" d="M615.653 717.413L630.242 717.413"/>
<path class="l4" d="M586.474 699.176L615.653 699.176"/>
<path class="l4" d="M601.063 688.234L601.063 699.176"/>
<path class="l4" d="M659.421 717.413L674.01 717.413"/>
<path class="l4" d="M674.01 702.823L674.01 717.413"/>
<path class="l4" d="M668.539 702.823L708.66 702.823"/>
<path class="l4" d="M703.189 702.823L703.189 717.413"/>
<path class="l4" d="M703.189 717.413L717.779 717.413"/>
<path class="l4" d="M674.01 699.176L703.189 699.176"/>
<path class="l4" d="M688.6 688.234L688.6 699.176"/>
<path class="l4" d="M746.957 717.413L761.547 717.413"/>
<path class="l4" d="M761.547 702.823L761.547 717.413"/>
<path class="l4" d="M756.076 702.823L796.197 702.823"/>
<path class="l4" d="M790.726 702.823L790.726 717.413"/>
<path class="l4" d="M790.726 717.413L805.315 717.413"/>
<path class="l4" d="M761.547 699.176L790.726 699.176"/>
<path class="l4" d="M776.136 688.234L776.136 699.176"/>
<path class="l4" d="M834.494 532.613L849.083 532.613"/>
<path class="l4" d="M849.083 518.024L849.083 532.613"/>
<path class="l4" d="M843.612 518.024L883.733 518.024"/>
<path class="l4" d="M878.262 518.024L878.262 532.613"/>
<path class="l4" d="M878.262 532.613L892.852 532.613"/>
<path class="l4" d="M849.083 514.376L878.262 514.376"/>
<path class="l4" d="M863.673 503.434L863.673 514.376"/>
<path class="l4" d="M722.642 532.613L737.231 532.613"/>
<path class="l4" d="M722.642 518.024L722.642 532.613"/>
<path class="l4" d="M687.992 518.024L728.113 518.024"/>
<path class="l4" d="M693.463 518.024L693.463 532.613"/>
<path class="l4" d="M678.873 532.613L693.463 532.613"/>
<path class="l4" d="M693.463 514.376L722.642 514.376"/>
<path class="l4" d="M708.052 503.434L708.052 514.376"/>
<path class="l4" d="M635.105 532.613L649.695 532.613"/>
<path class="l4" d="M635.105 518.024L635.105 532.613"/>
<path class="l4" d="M600.455 518.024L640.576 518.024"/>
<path class="l4" d="M605.926 518.024L605.926 532.613"/>
<path class="l4" d="M591.337 532.613L605.926 532.613"/>
<path class="l4" d="M605.926 514.376L635.105 514.376"/>
<path class="l4" d="M620.516 503.434L620.516 514.376"/>
<path class="l4" d="M756.684 532.613L771.273 532.613"/>
<path class="l4" d="M771.273 518.024L771.273 532.613"/>
<path class="l4" d="M765.802 518.024L805.923 518.024"/>
<path class="l4" d="M800.452 518.024L800.452 532.613"/>
<path class="l4" d="M800.452 532.613L815.041 532.613"/>
<path class="l4" d="M771.273 514.376L800.452 514.376"/>
<path class="l4" d="M785.863 503.434L785.863 514.376"/>
<path class="l4" d="M503.8 532.613L518.39 532.613"/>
<path class="l4" d="M518.39 518.024L518.39 532.613"/>
<path class="l4" d="M512.919 518.024L553.04 518.024"/>
<path class="l4" d="M547.569 518.024L547.569 532.613"/>
<path class="l4" d="M547.569 532.613L562.158 532.613"/>
<path class="l4" d="M518.39 514.376L547.569 514.376"/>
<path class="l4" d="M532.979 503.434L532.979 514.376"/>
<path class="l4" d="M391.948 532.613L406.537 532.613"/>
<path class="l4" d="M391.948 518.024L391.948 532.613"/>
<path class="l4" d="M357.298 518.024L397.419 518.024"/>
<path class="l4" d="M362.769 518.024L362.769 532.613"/>
<path class="l4" d="M348.18 532.613L362.769 532.613"/>
<path class="l4" d="M362.769 514.376L391.948 514.376"/>
<path class="l4" d="M377.359 503.434L377.359 514.376"/>
<path class="l4" d="M304.411 532.613L319.001 532.613"/>
<path class="l4" d="M304.411 518.024L304.411 532.613"/>
<path class="l4" d="M269.762 518.024L309.882 518.024"/>
<path class="l4" d="M275.233 518.024L275.233 532.613"/>
<path class="l4" d="M260.643 532.613L275.233 532.613"/>
<path class="l4" d="M275.233 514.376L304.411 514.376"/>
<path class="l4" d="M289.822 503.434L289.822 514.376"/>
<path class="l4" d="M425.99 532.613L440.579 532.613"/>
<path class="l4" d="M440.579 518.024L440.579 532.613"/>
<path class="l4" d="M435.108 518.024L475.229 518.024"/>
<path class="l4" d="M469.758 518.024L469.758 532.613"/>
<path class="l4" d="M469.758 532.613L484.348 532.613"/>
<path class="l4" d="M440.579 514.376L469.758 514.376"/>
<path class="l4" d="M455.169 503.434L455.169 514.376"/>
<path class="l4" d="M425.99 260.277L440.579 260.277"/>
<path class="l4" d="M440.579 245.688L440.579 260.277"/>
<path class="l4" d="M435.108 245.688L475.229 245.688"/>
<path class="l4" d="M469.758 245.688L469.758 260.277"/>
<path class="l4" d="M469.758 260.277L484.348 260.277"/>
<path class="l4" d="M440.579 242.04L469.758 242.04"/>
<path class="l4" d="M455.169 231.098L455.169 236.569"/>
<circle class="l4" cx="455.169" cy="239.305" r="2.73552" style="fill:none;"/>
<path class="l4" d="M260.643 260.277L275.233 260.277"/>
<path class="l4" d="M275.233 245.688L275.233 260.277"/>
<path class="l4" d="M269.762 245.688L309.882 245.688"/>
<path class="l4" d="M304.411 245.688L304.411 260.277"/>
<path class="l4" d="M304.411 260.277L319.001 260.277"/>
<path class="l4" d="M275.233 242.04L304.411 242.04"/>
<path class="l4" d="M289.822 231.098L289.822 236.569"/>
<circle class="l4" cx="289.822" cy="239.305" r="2.73552" style="fill:none;"/>
<path class="l4" d="M503.8 260.277L518.39 260.277"/>
<path class="l4" d="M518.39 245.688L518.39 260.277"/>
<path class="l4" d="M512.919 245.688L553.04 245.688"/>
<path class="l4" d="M547.569 245.688L547.569 260.277"/>
<path class="l4" d="M547.569 260.277L562.158 260.277"/>
<path class="l4" d="M518.39 242.04L547.569 242.04"/>
<path class="l4" d="M532.979 231.098L532.979 236.569"/>
<circle class="l4" cx="532.979" cy="239.305" r="2.73552" style="fill:none;"/>
<path class="l4" d="M338.453 260.277L353.043 260.277"/>
<path class="l4" d="M353.043 245.688L353.043 260.277"/>
<path class="l4" d="M347.572 245.688L387.693 245.688"/>
<path class="l4" d="M382.222 245.688L382.222 260.277"/>
<path class="l4" d="M382.222 260.277L396.811 260.277"/>
<path class="l4" d="M353.043 242.04L382.222 242.04"/>
<path class="l4" d="M367.632 231.098L367.632 236.569"/>
<circle class="l4" cx="367.632" cy="239.305" r="2.73552" style="fill:none;"/>
<path class="l4" d="M746.957 260.277L761.547 260.277"/>
<path class="l4" d="M761.547 245.688L761.547 260.277"/>
<path class="l4" d="M756.076 245.688L796.197 245.688"/>
<path class="l4" d="M790.726 245.688L790.726 260.277"/>
<path class="l4" d="M790.726 260.277L805.315 260.277"/>
<path class="l4" d="M761.547 242.04L790.726 242.04"/>
<path class="l4" d="M776.136 231.098L776.136 236.569"/>
<circle class="l4" cx="776.136" cy="239.305" r="2.73552" style="fill:none;"/>
<path class="l4" d="M581.611 260.277L596.2 260.277"/>
<path class="l4" d="M596.2 245.688L596.2 260.277"/>
<path class="l4" d="M590.729 245.688L630.85 245.688"/>
<path class="l4" d="M625.379 245.688L625.379 260.277"/>
<path class="l4" d="M625.379 260.277L639.968 260.277"/>
<path class="l4" d="M596.2 242.04L625.379 242.04"/>
<path class="l4" d="M610.789 231.098L610.789 236.569"/>
<circle class="l4" cx="610.789" cy="239.305" r="2.73552" style="fill:none;"/>
<path class="l4" d="M824.768 260.277L839.357 260.277"/>
<path class="l4" d="M839.357 245.688L839.357 260.277"/>
<path class="l4" d="M833.886 245.688L874.007 245.688"/>
<path class="l4" d="M868.536 245.688L868.536 260.277"/>
<path class="l4" d="M868.536 260.277L883.125 260.277"/>
<path class="l4" d="M839.357 242.04L868.536 242.04"/>
<path class="l4" d="M853.947 231.098L853.947 236.569"/>
<circle class="l4" cx="853.947" cy="239.305" r="2.73552" style="fill:none;"/>
<path class="l4" d="M659.421 260.277L674.01 260.277"/>
<path class="l4" d="M674.01 245.688L674.01 260.277"/>
<path class="l4" d="M668.539 245.688L708.66 245.688"/>
<path class="l4" d="M703.189 245.688L703.189 260.277"/>
<path class="l4" d="M703.189 260.277L717.779 260.277"/>
<path class="l4" d="M674.01 242.04L703.189 242.04"/>
<path class="l4" d="M688.6 231.098L688.6 236.569"/>
<circle class="l4" cx="688.6" cy="239.305" r="2.73552" style="fill:none;"/>
<path class="l4" d="M207.149 717.413L221.738 717.413"/>
<path class="l4" d="M207.149 702.823L207.149 717.413"/>
<path class="l4" d="M172.499 702.823L212.62 702.823"/>
<path class="l4" d="M177.97 702.823L177.97 717.413"/>
<path class="l4" d="M163.38 717.413L177.97 717.413"/>
<path class="l4" d="M177.97 699.176L207.149 699.176"/>
<path class="l4" d="M192.559 688.234L192.559 699.176"/>
<path class="l4" d="M207.149 532.613L221.738 532.613"/>
<path class="l4" d="M207.149 518.024L207.149 532.613"/>
<path class="l4" d="M172.499 518.024L212.62 518.024"/>
<path class="l4" d="M177.97 518.024L177.97 532.613"/>
<path class="l4" d="M163.38 532.613L177.97 532.613"/>
<path class="l4" d="M177.97 514.376L207.149 514.376"/>
<path class="l4" d="M192.559 503.434L192.559 514.376"/>
<path class="l4" d="M163.38 260.277L177.97 260.277"/>
<path class="l4" d="M177.97 245.688L177.97 260.277"/>
<path class="l4" d="M172.499 245.688L212.62 245.688"/>
<path class="l4" d="M207.149 245.688L207.149 260.277"/>
<path class="l4" d="M207.149 260.277L221.738 260.277"/>
<path class="l4" d="M177.97 242.04L207.149 242.04"/>
<path class="l4" d="M192.559 231.098L192.559 236.569"/>
<circle class="l4" cx="192.559" cy="239.305" r="2.73552" style="fill:none;"/>
<path class="l4" d="M1641.78 717.413L1656.37 717.413"/>
<path class="l4" d="M1656.37 702.823L1656.37 717.413"/>
<path class="l4" d="M1650.89 702.823L1691.02 702.823"/>
<path class="l4" d="M1685.54 702.823L1685.54 717.413"/>
<path class="l4" d="M1685.54 717.413L1700.13 717.413"/>
<path class="l4" d="M1656.37 699.176L1685.54 699.176"/>
<path class="l4" d="M1670.95 688.234L1670.95 699.176"/>
<path class="l4" d="M1379.17 717.413L1393.76 717.413"/>
<path class="l4" d="M1393.76 702.823L1393.76 717.413"/>
<path class="l4" d="M1388.28 702.823L1428.41 702.823"/>
<path class="l4" d="M1422.93 702.823L1422.93 717.413"/>
<path class="l4" d="M1422.93 717.413L1437.52 717.413"/>
<path class="l4" d="M1393.76 699.176L1422.93 699.176"/>
<path class="l4" d="M1408.35 688.234L1408.35 699.176"/>
<path class="l4" d="M1466.7 717.413L1481.29 717.413"/>
<path class="l4" d="M1481.29 702.823L1481.29 717.413"/>
<path class="l4" d="M1475.82 702.823L1515.94 702.823"/>
<path class="l4" d="M1510.47 702.823L1510.47 717.413"/>
<path class="l4" d="M1510.47 717.413L1525.06 717.413"/>
<path class="l4" d="M1481.29 699.176L1510.47 699.176"/>
<path class="l4" d="M1495.88 688.234L1495.88 699.176"/>
<path class="l4" d="M1554.24 717.413L1568.83 717.413"/>
<path class="l4" d="M1568.83 702.823L1568.83 717.413"/>
<path class="l4" d="M1563.36 702.823L1603.48 702.823"/>
<path class="l4" d="M1598.01 702.823L1598.01 717.413"/>
<path class="l4" d="M1598.01 717.413L1612.6 717.413"/>
<path class="l4" d="M1568.83 699.176L1598.01 699.176"/>
<path class="l4" d="M1583.42 688.234L1583.42 699.176"/>
<path class="l4" d="M1072.79 717.413L1087.38 717.413"/>
<path class="l4" d="M1072.79 702.823L1072.79 717.413"/>
<path class="l4" d="M1038.14 702.823L1078.26 702.823"/>
<path class="l4" d="M1043.61 702.823L1043.61 717.413"/>
<path class="l4" d="M1029.02 717.413L1043.61 717.413"/>
<path class="l4" d="M1043.61 699.176L1072.79 699.176"/>
<path class="l4" d="M1058.2 688.234L1058.2 699.176"/>
<path class="l4" d="M1335.4 717.413L1349.99 717.413"/>
<path class="l4" d="M1335.4 702.823L1335.4 717.413"/>
<path class="l4" d="M1300.75 702.823L1340.87 702.823"/>
<path class="l4" d="M1306.22 702.823L1306.22 717.413"/>
<path class="l4" d="M1291.63 717.413L1306.22 717.413"/>
<path class="l4" d="M1306.22 699.176L1335.4 699.176"/>
<path class="l4" d="M1320.81 688.234L1320.81 699.176"/>
<path class="l4" d="M1247.86 717.413L1262.45 717.413"/>
<path class="l4" d="M1247.86 702.823L1247.86 717.413"/>
<path class="l4" d="M1213.21 702.823L1253.33 702.823"/>
<path class="l4" d="M1218.68 702.823L1218.68 717.413"/>
<path class="l4" d="M1204.09 717.413L1218.68 717.413"/>
<path class="l4" d="M1218.68 699.176L1247.86 699.176"/>
<path class="l4" d="M1233.27 688.234L1233.27 699.176"/>
<path class="l4" d="M1160.32 717.413L1174.91 717.413"/>
<path class="l4" d="M1160.32 702.823L1160.32 717.413"/>
<path class="l4" d="M1125.67 702.823L1165.8 702.823"/>
<path class="l4" d="M1131.15 702.823L1131.15 717.413"/>
<path class="l4" d="M1116.56 717.413L1131.15 717.413"/>
<path class="l4" d="M1131.15 699.176L1160.32 699.176"/>
<path class="l4" d="M1145.74 688.234L1145.74 699.176"/>
<path class="l4" d="M1072.79 532.613L1087.38 532.613"/>
<path class="l4" d="M1072.79 518.024L1072.79 532.613"/>
<path class="l4" d="M1038.14 518.024L1078.26 518.024"/>
<path class="l4" d="M1043.61 518.024L1043.61 532.613"/>
<path class="l4" d="M1029.02 532.613L1043.61 532.613"/>
<path class="l4" d="M1043.61 514.376L1072.79 514.376"/>
<path class="l4" d="M1058.2 503.434L1058.2 514.376"/>
<path class="l4" d="M1184.64 532.613L1199.23 532.613"/>
<path class="l4" d="M1199.23 518.024L1199.23 532.613"/>
<path class="l4" d="M1193.76 518.024L1233.88 518.024"/>
<path class="l4" d="M1228.41 518.024L1228.41 532.613"/>
<path class="l4" d="M1228.41 532.613L1243 532.613"/>
<path class="l4" d="M1199.23 514.376L1228.41 514.376"/>
<path class="l4" d="M1213.82 503.434L1213.82 514.376"/>
<path class="l4" d="M1272.18 532.613L1286.77 532.613"/>
<path class="l4" d="M1286.77 518.024L1286.77 532.613"/>
<path class="l4" d="M1281.3 518.024L1321.42 518.024"/>
<path class="l4" d="M1315.95 518.024L1315.95 532.613"/>
<path class="l4" d="M1315.95 532.613L1330.53 532.613"/>
<path class="l4" d="M1286.77 514.376L1315.95 514.376"/>
<path class="l4" d="M1301.36 503.434L1301.36 514.376"/>
<path class="l4" d="M1150.6 532.613L1165.19 532.613"/>
<path class="l4" d="M1150.6 518.024L1150.6 532.613"/>
<path class="l4" d="M1115.95 518.024L1156.07 518.024"/>
<path class="l4" d="M1121.42 518.024L1121.42 532.613"/>
<path class="l4" d="M1106.83 532.613L1121.42 532.613"/>
<path class="l4" d="M1121.42 514.376L1150.6 514.376"/>
<path class="l4" d="M1136.01 503.434L1136.01 514.376"/>
<path class="l4" d="M1403.48 532.613L1418.07 532.613"/>
<path class="l4" d="M1403.48 518.024L1403.48 532.613"/>
<path class="l4" d="M1368.83 518.024L1408.95 518.024"/>
<path class="l4" d="M1374.3 518.024L1374.3 532.613"/>
<path class="l4" d="M1359.71 532.613L1374.3 532.613"/>
<path class="l4" d="M1374.3 514.376L1403.48 514.376"/>
<path class="l4" d="M1388.89 503.434L1388.89 514.376"/>
<path class="l4" d="M1515.33 532.613L1529.92 532.613"/>
<path class="l4" d="M1529.92 518.024L1529.92 532.613"/>
<path class="l4" d="M1524.45 518.024L1564.57 518.024"/>
<path class="l4" d="M1559.1 518.024L1559.1 532.613"/>
<path class="l4" d="M1559.1 532.613L1573.69 532.613"/>
<path class="l4" d="M1529.92 514.376L1559.1 514.376"/>
<path class="l4" d="M1544.51 503.434L1544.51 514.376"/>
<path class="l4" d="M1602.87 532.613L1617.46 532.613"/>
<path class="l4" d="M1617.46 518.024L1617.46 532.613"/>
<path class="l4" d="M1611.99 518.024L1652.11 518.024"/>
<path class="l4" d="M1646.64 518.024L1646.64 532.613"/>
<path class="l4" d="M1646.64 532.613L1661.23 532.613"/>
<path class="l4" d="M1617.46 514.376L1646.64 514.376"/>
<path class="l4" d="M1632.05 503.434L1632.05 514.376"/>
<path class="l4" d="M1481.29 532.613L1495.88 532.613"/>
<path class="l4" d="M1481.29 518.024L1481.29 532.613"/>
<path class="l4" d="M1446.64 518.024L1486.76 518.024"/>
<path class="l4" d="M1452.11 518.024L1452.11 532.613"/>
<path class="l4" d="M1437.52 532.613L1452.11 532.613"/>
<path class="l4" d="M1452.11 514.376L1481.29 514.376"/>
<path class="l4" d="M1466.7 503.434L1466.7 514.376"/>
<path class="l4" d="M1481.29 260.277L1495.88 260.277"/>
<path class="l4" d="M1481.29 245.688L1481.29 260.277"/>
<path class="l4" d="M1446.64 245.688L1486.76 245.688"/>
<path class="l4" d="M1452.11 245.688L1452.11 260.277"/>
<path class="l4" d="M1437.52 260.277L1452.11 260.277"/>
<path class="l4" d="M1452.11 242.04L1481.29 242.04"/>
<path class="l4" d="M1466.7 231.098L1466.7 236.569"/>
<circle class="l4" cx="1466.7" cy="239.305" r="2.73552" style="fill:none;"/>
<path class="l4" d="M1646.64 260.277L1661.23 260.277"/>
<path class="l4" d="M1646.64 245.688L1646.64 260.277"/>
<path class="l4" d="M1611.99 245.688L1652.11 245.688"/>
<path class="l4" d="M1617.46 245.688L1617.46 260.277"/>
<path class="l4" d="M1602.87 260.277L1617.46 260.277"/>
<path class="l4" d="M1617.46 242.04L1646.64 242.04"/>
<path class="l4" d="M1632.05 231.098L1632.05 236.569"/>
<circle class="l4" cx="1632.05" cy="239.305" r="2.73552" style="fill:none;"/>
<path class="l4" d="M1403.48 260.277L1418.07 260.277"/>
<path class="l4" d="M1403.48 245.688L1403.48 260.277"/>
<path class="l4" d="M1368.83 245.688L1408.95 245.688"/>
<path class="l4" d="M1374.3 245.688L1374.3 260.277"/>
<path class="l4" d="M1359.71 260.277L1374.3 260.277"/>
<path class="l4" d="M1374.3 242.04L1403.48 242.04"/>
<path class="l4" d="M1388.89 231.098L1388.89 236.569"/>
<circle class="l4" cx="1388.89" cy="239.305" r="2.73552" style="fill:none;"/>
<path class="l4" d="M1568.83 260.277L1583.42 260.277"/>
<path class="l4" d="M1568.83 245.688L1568.83 260.277"/>
<path class="l4" d="M1534.18 245.688L1574.3 245.688"/>
<path class="l4" d="M1539.65 245.688L1539.65 260.277"/>
<path class="l4" d="M1525.06 260.277L1539.65 260.277"/>
<path class="l4" d="M1539.65 242.04L1568.83 242.04"/>
<path class="l4" d="M1554.24 231.098L1554.24 236.569"/>
<circle class="l4" cx="1554.24" cy="239.305" r="2.73552" style="fill:none;"/>
<path class="l4" d="M1160.32 260.277L1174.91 260.277"/>
<path class="l4" d="M1160.32 245.688L1160.32 260.277"/>
<path class="l4" d="M1125.67 245.688L1165.8 245.688"/>
<path class="l4" d="M1131.15 245.688L1131.15 260.277"/>
<path class="l4" d="M1116.56 260.277L1131.15 260.277"/>
<path class="l4" d="M1131.15 242.04L1160.32 242.04"/>
<path class="l4" d="M1145.74 231.098L1145.74 236.569"/>
<circle class="l4" cx="1145.74" cy="239.305" r="2.73552" style="fill:none;"/>
<path class="l4" d="M1325.67 260.277L1340.26 260.277"/>
<path class="l4" d="M1325.67 245.688L1325.67 260.277"/>
<path class="l4" d="M1291.02 245.688L1331.14 245.688"/>
<path class="l4" d="M1296.49 245.688L1296.49 260.277"/>
<path class="l4" d="M1281.9 260.277L1296.49 260.277"/>
<path class="l4" d="M1296.49 242.04L1325.67 242.04"/>
<path class="l4" d="M1311.08 231.098L1311.08 236.569"/>
<circle class="l4" cx="1311.08" cy="239.305" r="2.73552" style="fill:none;"/>
<path class="l4" d="M1082.51 260.277L1097.1 260.277"/>
<path class="l4" d="M1082.51 245.688L1082.51 260.277"/>
<path class="l4" d="M1047.86 245.688L1087.99 245.688"/>
<path class="l4" d="M1053.34 245.688L1053.34 260.277"/>
<path class="l4" d="M1038.75 260.277L1053.34 260.277"/>
<path class="l4" d="M1053.34 242.04L1082.51 242.04"/>
<path class="l4" d="M1067.92 231.098L1067.92 236.569"/>
<circle class="l4" cx="1067.92" cy="239.305" r="2.73552" style="fill:none;"/>
<path class="l4" d="M1247.86 260.277L1262.45 260.277"/>
<path class="l4" d="M1247.86 245.688L1247.86 260.277"/>
<path class="l4" d="M1213.21 245.688L1253.33 245.688"/>
<path class="l4" d="M1218.68 245.688L1218.68 260.277"/>
<path class="l4" d="M1204.09 260.277L1218.68 260.277"/>
<path class="l4" d="M1218.68 242.04L1247.86 242.04"/>
<path class="l4" d="M1233.27 231.098L1233.27 236.569"/>
<circle class="l4" cx="1233.27" cy="239.305" r="2.73552" style="fill:none;"/>
<path class="l4" d="M1700.13 717.413L1714.72 717.413"/>
<path class="l4" d="M1714.72 702.823L1714.72 717.413"/>
<path class="l4" d="M1709.25 702.823L1749.37 702.823"/>
<path class="l4" d="M1743.9 702.823L1743.9 717.413"/>
<path class="l4" d="M1743.9 717.413L1758.49 717.413"/>
<path class="l4" d="M1714.72 699.176L1743.9 699.176"/>
<path class="l4" d="M1729.31 688.234L1729.31 699.176"/>
<path class="l4" d="M1700.13 532.613L1714.72 532.613"/>
<path class="l4" d="M1714.72 518.024L1714.72 532.613"/>
<path class="l4" d="M1709.25 518.024L1749.37 518.024"/>
<path class="l4" d="M1743.9 518.024L1743.9 532.613"/>
<path class="l4" d="M1743.9 532.613L1758.49 532.613"/>
<path class="l4" d="M1714.72 514.376L1743.9 514.376"/>
<path class="l4" d="M1729.31 503.434L1729.31 514.376"/>
<path class="l4" d="M1743.9 260.277L1758.49 260.277"/>
<path class="l4" d="M1743.9 245.688L1743.9 260.277"/>
<path class="l4" d="M1709.25 245.688L1749.37 245.688"/>
<path class="l4" d="M1714.72 245.688L1714.72 260.277"/>
<path class="l4" d="M1700.13 260.277L1714.72 260.277"/>
<path class="l4" d="M1714.72 242.04L1743.9 242.04"/>
<path class="l4" d="M1729.31 231.098L1729.31 236.569"/>
<circle class="l4" cx="1729.31" cy="239.305" r="2.73552" style="fill:none;"/>
<path class="l5" d="M90.4331 668.781L95.2962 668.781"/>
<path class="l5" d="M90.4331 668.781L86.7857 663.918L78.2752 663.918L81.9226 668.781L78.2752 673.644L86.7857 673.644L90.4331 668.781"/>
<path class="l5" d="M94.0804 667.565L96.512 667.565L96.512 669.997L94.0804 669.997L94.0804 667.565z"/>
<path class="l5" d="M279.609 716.926L280.582 716.926L280.582 717.899L279.609 717.899L279.609 716.926z"/>
<path class="l5" d="M250.431 687.747L251.403 687.747L251.403 688.72L250.431 688.72L250.431 687.747z"/>
<path class="l5" d="M221.252 716.926L222.224 716.926L222.224 717.899L221.252 717.899L221.252 716.926z"/>
<path class="l5" d="M542.219 716.926L543.192 716.926L543.192 717.899L542.219 717.899L542.219 716.926z"/>
<path class="l5" d="M513.04 687.747L514.013 687.747L514.013 688.72L513.04 688.72L513.04 687.747z"/>
<path class="l5" d="M483.861 716.926L484.834 716.926L484.834 717.899L483.861 717.899L483.861 716.926z"/>
<path class="l5" d="M454.683 716.926L455.655 716.926L455.655 717.899L454.683 717.899L454.683 716.926z"/>
<path class="l5" d="M425.504 687.747L426.476 687.747L426.476 688.72L425.504 688.72L425.504 687.747z"/>
<path class="l5" d="M396.325 716.926L397.297 716.926L397.297 717.899L396.325 717.899L396.325 716.926z"/>
<path class="l5" d="M367.146 716.926L368.119 716.926L368.119 717.899L367.146 717.899L367.146 716.926z"/>
<path class="l5" d="M337.967 687.747L338.94 687.747L338.94 688.72L337.967 688.72L337.967 687.747z"/>
<path class="l5" d="M308.788 716.926L309.761 716.926L309.761 717.899L308.788 717.899L308.788 716.926z"/>
<path class="l5" d="M834.008 716.926L834.98 716.926L834.98 717.899L834.008 717.899L834.008 716.926z"/>
<path class="l5" d="M863.187 687.747L864.159 687.747L864.159 688.72L863.187 688.72L863.187 687.747z"/>
<path class="l5" d="M892.365 716.926L893.338 716.926L893.338 717.899L892.365 717.899L892.365 716.926z"/>
<path class="l5" d="M571.398 716.926L572.371 716.926L572.371 717.899L571.398 717.899L571.398 716.926z"/>
<path class="l5" d="M600.577 687.747L601.549 687.747L601.549 688.72L600.577 688.72L600.577 687.747z"/>
<path class="l5" d="M629.756 716.926L630.728 716.926L630.728 717.899L629.756 717.899L629.756 716.926z"/>
<path class="l5" d="M658.935 716.926L659.907 716.926L659.907 717.899L658.935 717.899L658.935 716.926z"/>
<path class="l5" d="M688.113 687.747L689.086 687.747L689.086 688.72L688.113 688.72L688.113 687.747z"/>
<path class="l5" d="M717.292 716.926L718.265 716.926L718.265 717.899L717.292 717.899L717.292 716.926z"/>
<path class="l5" d="M746.471 716.926L747.444 716.926L747.444 717.899L746.471 717.899L746.471 716.926z"/>
<path class="l5" d="M775.65 687.747L776.623 687.747L776.623 688.72L775.65 688.72L775.65 687.747z"/>
<path class="l5" d="M804.829 716.926L805.802 716.926L805.802 717.899L804.829 717.899L804.829 716.926z"/>
<path class="l5" d="M86.7857 347.814L95.2962 347.814"/>
<path class="l5" d="M78.2752 347.814L81.9226 352.677L90.4331 352.677L86.7857 347.814L90.4331 342.95L81.9226 342.95L78.2752 347.814"/>
<path class="l5" d="M94.0804 346.598L96.512 346.598L96.512 349.029L94.0804 349.029L94.0804 346.598z"/>
<path class="l5" d="M92.2568 610.423L95.2962 610.423"/>
<path class="l5" d="M81.9226 605.56L78.2752 610.423L81.9226 615.287L88.6094 615.287L92.2568 610.423L88.6094 605.56L81.9226 605.56"/>
<path class="l5" d="M94.0804 609.208L96.512 609.208L96.512 611.639L94.0804 611.639L94.0804 609.208z"/>
<path class="l5" d="M90.4331 406.171L95.2962 406.171"/>
<path class="l5" d="M90.4331 406.171L86.7857 401.308L78.2752 401.308L81.9226 406.171L78.2752 411.034L86.7857 411.034L90.4331 406.171"/>
<path class="l5" d="M94.0804 404.956L96.512 404.956L96.512 407.387L94.0804 407.387L94.0804 404.956z"/>
<path class="l5" d="M90.4331 386.719L95.2962 386.719"/>
<path class="l5" d="M90.4331 386.719L86.7857 381.856L78.2752 381.856L81.9226 386.719L78.2752 391.582L86.7857 391.582L90.4331 386.719"/>
<path class="l5" d="M94.0804 385.503L96.512 385.503L96.512 387.935L94.0804 387.935L94.0804 385.503z"/>
<path class="l5" d="M90.4331 367.266L95.2962 367.266"/>
<path class="l5" d="M90.4331 367.266L86.7857 372.129L78.2752 372.129L81.9226 367.266L78.2752 362.403L86.7857 362.403L90.4331 367.266"/>
<path class="l5" d="M94.0804 366.05L96.512 366.05L96.512 368.482L94.0804 368.482L94.0804 366.05z"/>
<path class="l5" d="M834.008 532.127L834.98 532.127L834.98 533.099L834.008 533.099L834.008 532.127z"/>
<path class="l5" d="M863.187 502.948L864.159 502.948L864.159 503.921L863.187 503.921L863.187 502.948z"/>
<path class="l5" d="M892.365 532.127L893.338 532.127L893.338 533.099L892.365 533.099L892.365 532.127z"/>
<path class="l5" d="M736.745 532.127L737.718 532.127L737.718 533.099L736.745 533.099L736.745 532.127z"/>
<path class="l5" d="M707.566 502.948L708.539 502.948L708.539 503.921L707.566 503.921L707.566 502.948z"/>
<path class="l5" d="M678.387 532.127L679.36 532.127L679.36 533.099L678.387 533.099L678.387 532.127z"/>
<path class="l5" d="M649.208 532.127L650.181 532.127L650.181 533.099L649.208 533.099L649.208 532.127z"/>
<path class="l5" d="M620.029 502.948L621.002 502.948L621.002 503.921L620.029 503.921L620.029 502.948z"/>
<path class="l5" d="M590.851 532.127L591.823 532.127L591.823 533.099L590.851 533.099L590.851 532.127z"/>
<path class="l5" d="M756.197 532.127L757.17 532.127L757.17 533.099L756.197 533.099L756.197 532.127z"/>
<path class="l5" d="M785.376 502.948L786.349 502.948L786.349 503.921L785.376 503.921L785.376 502.948z"/>
<path class="l5" d="M814.555 532.127L815.528 532.127L815.528 533.099L814.555 533.099L814.555 532.127z"/>
<path class="l5" d="M503.314 532.127L504.287 532.127L504.287 533.099L503.314 533.099L503.314 532.127z"/>
<path class="l5" d="M532.493 502.948L533.465 502.948L533.465 503.921L532.493 503.921L532.493 502.948z"/>
<path class="l5" d="M561.672 532.127L562.644 532.127L562.644 533.099L561.672 533.099L561.672 532.127z"/>
<path class="l5" d="M406.051 532.127L407.024 532.127L407.024 533.099L406.051 533.099L406.051 532.127z"/>
<path class="l5" d="M376.872 502.948L377.845 502.948L377.845 503.921L376.872 503.921L376.872 502.948z"/>
<path class="l5" d="M347.693 532.127L348.666 532.127L348.666 533.099L347.693 533.099L347.693 532.127z"/>
<path class="l5" d="M318.515 532.127L319.487 532.127L319.487 533.099L318.515 533.099L318.515 532.127z"/>
<path class="l5" d="M289.336 502.948L290.308 502.948L290.308 503.921L289.336 503.921L289.336 502.948z"/>
<path class="l5" d="M260.157 532.127L261.129 532.127L261.129 533.099L260.157 533.099L260.157 532.127z"/>
<path class="l5" d="M425.504 532.127L426.476 532.127L426.476 533.099L425.504 533.099L425.504 532.127z"/>
<path class="l5" d="M454.683 502.948L455.655 502.948L455.655 503.921L454.683 503.921L454.683 502.948z"/>
<path class="l5" d="M483.861 532.127L484.834 532.127L484.834 533.099L483.861 533.099L483.861 532.127z"/>
<path class="l5" d="M90.4331 221.372L95.2962 221.372"/>
<path class="l5" d="M90.4331 221.372L86.7857 216.509L78.2752 216.509L81.9226 221.372L78.2752 226.235L86.7857 226.235L90.4331 221.372"/>
<path class="l5" d="M94.0804 220.156L96.512 220.156L96.512 222.588L94.0804 222.588L94.0804 220.156z"/>
<path class="l5" d="M92.2568 182.467L95.2962 182.467"/>
<path class="l5" d="M81.9226 177.604L78.2752 182.467L81.9226 187.33L88.6094 187.33L92.2568 182.467L88.6094 177.604L81.9226 177.604"/>
<path class="l5" d="M94.0804 181.251L96.512 181.251L96.512 183.683L94.0804 183.683L94.0804 181.251z"/>
<path class="l5" d="M90.4331 201.919L95.2962 201.919"/>
<path class="l5" d="M90.4331 201.919L86.7857 197.056L78.2752 197.056L81.9226 201.919L78.2752 206.782L86.7857 206.782L90.4331 201.919"/>
<path class="l5" d="M94.0804 200.704L96.512 200.704L96.512 203.135L94.0804 203.135L94.0804 200.704z"/>
<path class="l5" d="M483.861 259.791L484.834 259.791L484.834 260.763L483.861 260.763L483.861 259.791z"/>
<path class="l5" d="M454.683 230.612L455.655 230.612L455.655 231.584L454.683 231.584L454.683 230.612z"/>
<path class="l5" d="M425.504 259.791L426.476 259.791L426.476 260.763L425.504 260.763L425.504 259.791z"/>
<path class="l5" d="M318.515 259.791L319.487 259.791L319.487 260.763L318.515 260.763L318.515 259.791z"/>
<path class="l5" d="M289.336 230.612L290.308 230.612L290.308 231.584L289.336 231.584L289.336 230.612z"/>
<path class="l5" d="M260.157 259.791L261.129 259.791L261.129 260.763L260.157 260.763L260.157 259.791z"/>
<path class="l5" d="M561.672 259.791L562.644 259.791L562.644 260.763L561.672 260.763L561.672 259.791z"/>
<path class="l5" d="M532.493 230.612L533.465 230.612L533.465 231.584L532.493 231.584L532.493 230.612z"/>
<path class="l5" d="M503.314 259.791L504.287 259.791L504.287 260.763L503.314 260.763L503.314 259.791z"/>
<path class="l5" d="M396.325 259.791L397.297 259.791L397.297 260.763L396.325 260.763L396.325 259.791z"/>
<path class="l5" d="M367.146 230.612L368.119 230.612L368.119 231.584L367.146 231.584L367.146 230.612z"/>
<path class="l5" d="M337.967 259.791L338.94 259.791L338.94 260.763L337.967 260.763L337.967 259.791z"/>
<path class="l5" d="M804.829 259.791L805.802 259.791L805.802 260.763L804.829 260.763L804.829 259.791z"/>
<path class="l5" d="M775.65 230.612L776.623 230.612L776.623 231.584L775.65 231.584L775.65 230.612z"/>
<path class="l5" d="M746.471 259.791L747.444 259.791L747.444 260.763L746.471 260.763L746.471 259.791z"/>
<path class="l5" d="M639.482 259.791L640.455 259.791L640.455 260.763L639.482 260.763L639.482 259.791z"/>
<path class="l5" d="M610.303 230.612L611.276 230.612L611.276 231.584L610.303 231.584L610.303 230.612z"/>
<path class="l5" d="M581.124 259.791L582.097 259.791L582.097 260.763L581.124 260.763L581.124 259.791z"/>
<path class="l5" d="M882.639 259.791L883.612 259.791L883.612 260.763L882.639 260.763L882.639 259.791z"/>
<path class="l5" d="M853.46 230.612L854.433 230.612L854.433 231.584L853.46 231.584L853.46 230.612z"/>
<path class="l5" d="M824.281 259.791L825.254 259.791L825.254 260.763L824.281 260.763L824.281 259.791z"/>
<path class="l5" d="M717.292 259.791L718.265 259.791L718.265 260.763L717.292 260.763L717.292 259.791z"/>
<path class="l5" d="M688.113 230.612L689.086 230.612L689.086 231.584L688.113 231.584L688.113 230.612z"/>
<path class="l5" d="M658.935 259.791L659.907 259.791L659.907 260.763L658.935 260.763L658.935 259.791z"/>
<path class="l5" d="M221.252 716.926L222.224 716.926L222.224 717.899L221.252 717.899L221.252 716.926z"/>
<path class="l5" d="M192.073 687.747L193.045 687.747L193.045 688.72L192.073 688.72L192.073 687.747z"/>
<path class="l5" d="M162.894 716.926L163.867 716.926L163.867 717.899L162.894 717.899L162.894 716.926z"/>
<path class="l5" d="M221.252 532.127L222.224 532.127L222.224 533.099L221.252 533.099L221.252 532.127z"/>
<path class="l5" d="M192.073 502.948L193.045 502.948L193.045 503.921L192.073 503.921L192.073 502.948z"/>
<path class="l5" d="M162.894 532.127L163.867 532.127L163.867 533.099L162.894 533.099L162.894 532.127z"/>
<path class="l5" d="M221.252 259.791L222.224 259.791L222.224 260.763L221.252 260.763L221.252 259.791z"/>
<path class="l5" d="M192.073 230.612L193.045 230.612L193.045 231.584L192.073 231.584L192.073 230.612z"/>
<path class="l5" d="M162.894 259.791L163.867 259.791L163.867 260.763L162.894 260.763L162.894 259.791z"/>
<path class="l5" d="M1641.29 716.926L1642.26 716.926L1642.26 717.899L1641.29 717.899L1641.29 716.926z"/>
<path class="l5" d="M1670.47 687.747L1671.44 687.747L1671.44 688.72L1670.47 688.72L1670.47 687.747z"/>
<path class="l5" d="M1699.65 716.926L1700.62 716.926L1700.62 717.899L1699.65 717.899L1699.65 716.926z"/>
<path class="l5" d="M1378.68 716.926L1379.65 716.926L1379.65 717.899L1378.68 717.899L1378.68 716.926z"/>
<path class="l5" d="M1407.86 687.747L1408.83 687.747L1408.83 688.72L1407.86 688.72L1407.86 687.747z"/>
<path class="l5" d="M1437.04 716.926L1438.01 716.926L1438.01 717.899L1437.04 717.899L1437.04 716.926z"/>
<path class="l5" d="M1466.22 716.926L1467.19 716.926L1467.19 717.899L1466.22 717.899L1466.22 716.926z"/>
<path class="l5" d="M1495.4 687.747L1496.37 687.747L1496.37 688.72L1495.4 688.72L1495.4 687.747z"/>
<path class="l5" d="M1524.57 716.926L1525.55 716.926L1525.55 717.899L1524.57 717.899L1524.57 716.926z"/>
<path class="l5" d="M1553.75 716.926L1554.73 716.926L1554.73 717.899L1553.75 717.899L1553.75 716.926z"/>
<path class="l5" d="M1582.93 687.747L1583.9 687.747L1583.9 688.72L1582.93 688.72L1582.93 687.747z"/>
<path class="l5" d="M1612.11 716.926L1613.08 716.926L1613.08 717.899L1612.11 717.899L1612.11 716.926z"/>
<path class="l5" d="M1086.89 716.926L1087.86 716.926L1087.86 717.899L1086.89 717.899L1086.89 716.926z"/>
<path class="l5" d="M1057.71 687.747L1058.68 687.747L1058.68 688.72L1057.71 688.72L1057.71 687.747z"/>
<path class="l5" d="M1028.53 716.926L1029.51 716.926L1029.51 717.899L1028.53 717.899L1028.53 716.926z"/>
<path class="l5" d="M1349.5 716.926L1350.47 716.926L1350.47 717.899L1349.5 717.899L1349.5 716.926z"/>
<path class="l5" d="M1320.32 687.747L1321.29 687.747L1321.29 688.72L1320.32 688.72L1320.32 687.747z"/>
<path class="l5" d="M1291.14 716.926L1292.12 716.926L1292.12 717.899L1291.14 717.899L1291.14 716.926z"/>
<path class="l5" d="M1261.96 716.926L1262.94 716.926L1262.94 717.899L1261.96 717.899L1261.96 716.926z"/>
<path class="l5" d="M1232.79 687.747L1233.76 687.747L1233.76 688.72L1232.79 688.72L1232.79 687.747z"/>
<path class="l5" d="M1203.61 716.926L1204.58 716.926L1204.58 717.899L1203.61 717.899L1203.61 716.926z"/>
<path class="l5" d="M1174.43 716.926L1175.4 716.926L1175.4 717.899L1174.43 717.899L1174.43 716.926z"/>
<path class="l5" d="M1145.25 687.747L1146.22 687.747L1146.22 688.72L1145.25 688.72L1145.25 687.747z"/>
<path class="l5" d="M1116.07 716.926L1117.04 716.926L1117.04 717.899L1116.07 717.899L1116.07 716.926z"/>
<path class="l5" d="M1086.89 532.127L1087.86 532.127L1087.86 533.099L1086.89 533.099L1086.89 532.127z"/>
<path class="l5" d="M1057.71 502.948L1058.68 502.948L1058.68 503.921L1057.71 503.921L1057.71 502.948z"/>
<path class="l5" d="M1028.53 532.127L1029.51 532.127L1029.51 533.099L1028.53 533.099L1028.53 532.127z"/>
<path class="l5" d="M1184.15 532.127L1185.13 532.127L1185.13 533.099L1184.15 533.099L1184.15 532.127z"/>
<path class="l5" d="M1213.33 502.948L1214.31 502.948L1214.31 503.921L1213.33 503.921L1213.33 502.948z"/>
<path class="l5" d="M1242.51 532.127L1243.48 532.127L1243.48 533.099L1242.51 533.099L1242.51 532.127z"/>
<path class="l5" d="M1271.69 532.127L1272.66 532.127L1272.66 533.099L1271.69 533.099L1271.69 532.127z"/>
<path class="l5" d="M1300.87 502.948L1301.84 502.948L1301.84 503.921L1300.87 503.921L1300.87 502.948z"/>
<path class="l5" d="M1330.05 532.127L1331.02 532.127L1331.02 533.099L1330.05 533.099L1330.05 532.127z"/>
<path class="l5" d="M1164.7 532.127L1165.67 532.127L1165.67 533.099L1164.7 533.099L1164.7 532.127z"/>
<path class="l5" d="M1135.52 502.948L1136.5 502.948L1136.5 503.921L1135.52 503.921L1135.52 502.948z"/>
<path class="l5" d="M1106.34 532.127L1107.32 532.127L1107.32 533.099L1106.34 533.099L1106.34 532.127z"/>
<path class="l5" d="M1417.58 532.127L1418.56 532.127L1418.56 533.099L1417.58 533.099L1417.58 532.127z"/>
<path class="l5" d="M1388.41 502.948L1389.38 502.948L1389.38 503.921L1388.41 503.921L1388.41 502.948z"/>
<path class="l5" d="M1359.23 532.127L1360.2 532.127L1360.2 533.099L1359.23 533.099L1359.23 532.127z"/>
<path class="l5" d="M1514.85 532.127L1515.82 532.127L1515.82 533.099L1514.85 533.099L1514.85 532.127z"/>
<path class="l5" d="M1544.03 502.948L1545 502.948L1545 503.921L1544.03 503.921L1544.03 502.948z"/>
<path class="l5" d="M1573.21 532.127L1574.18 532.127L1574.18 533.099L1573.21 533.099L1573.21 532.127z"/>
<path class="l5" d="M1602.38 532.127L1603.36 532.127L1603.36 533.099L1602.38 533.099L1602.38 532.127z"/>
<path class="l5" d="M1631.56 502.948L1632.54 502.948L1632.54 503.921L1631.56 503.921L1631.56 502.948z"/>
<path class="l5" d="M1660.74 532.127L1661.71 532.127L1661.71 533.099L1660.74 533.099L1660.74 532.127z"/>
<path class="l5" d="M1495.4 532.127L1496.37 532.127L1496.37 533.099L1495.4 533.099L1495.4 532.127z"/>
<path class="l5" d="M1466.22 502.948L1467.19 502.948L1467.19 503.921L1466.22 503.921L1466.22 502.948z"/>
<path class="l5" d="M1437.04 532.127L1438.01 532.127L1438.01 533.099L1437.04 533.099L1437.04 532.127z"/>
<path class="l5" d="M1437.04 259.791L1438.01 259.791L1438.01 260.763L1437.04 260.763L1437.04 259.791z"/>
<path class="l5" d="M1466.22 230.612L1467.19 230.612L1467.19 231.584L1466.22 231.584L1466.22 230.612z"/>
<path class="l5" d="M1495.4 259.791L1496.37 259.791L1496.37 260.763L1495.4 260.763L1495.4 259.791z"/>
<path class="l5" d="M1602.38 259.791L1603.36 259.791L1603.36 260.763L1602.38 260.763L1602.38 259.791z"/>
<path class="l5" d="M1631.56 230.612L1632.54 230.612L1632.54 231.584L1631.56 231.584L1631.56 230.612z"/>
<path class="l5" d="M1660.74 259.791L1661.71 259.791L1661.71 260.763L1660.74 260.763L1660.74 259.791z"/>
<path class="l5" d="M1359.23 259.791L1360.2 259.791L1360.2 260.763L1359.23 260.763L1359.23 259.791z"/>
<path class="l5" d="M1388.41 230.612L1389.38 230.612L1389.38 231.584L1388.41 231.584L1388.41 230.612z"/>
<path class="l5" d="M1417.58 259.791L1418.56 259.791L1418.56 260.763L1417.58 260.763L1417.58 259.791z"/>
<path class="l5" d="M1524.57 259.791L1525.55 259.791L1525.55 260.763L1524.57 260.763L1524.57 259.791z"/>
<path class="l5" d="M1553.75 230.612L1554.73 230.612L1554.73 231.584L1553.75 231.584L1553.75 230.612z"/>
<path class="l5" d="M1582.93 259.791L1583.9 259.791L1583.9 260.763L1582.93 260.763L1582.93 259.791z"/>
<path class="l5" d="M1116.07 259.791L1117.04 259.791L1117.04 260.763L1116.07 260.763L1116.07 259.791z"/>
<path class="l5" d="M1145.25 230.612L1146.22 230.612L1146.22 231.584L1145.25 231.584L1145.25 230.612z"/>
<path class="l5" d="M1174.43 259.791L1175.4 259.791L1175.4 260.763L1174.43 260.763L1174.43 259.791z"/>
<path class="l5" d="M1281.42 259.791L1282.39 259.791L1282.39 260.763L1281.42 260.763L1281.42 259.791z"/>
<path class="l5" d="M1310.6 230.612L1311.57 230.612L1311.57 231.584L1310.6 231.584L1310.6 230.612z"/>
<path class="l5" d="M1339.77 259.791L1340.75 259.791L1340.75 260.763L1339.77 260.763L1339.77 259.791z"/>
<path class="l5" d="M1038.26 259.791L1039.23 259.791L1039.23 260.763L1038.26 260.763L1038.26 259.791z"/>
<path class="l5" d="M1067.44 230.612L1068.41 230.612L1068.41 231.584L1067.44 231.584L1067.44 230.612z"/>
<path class="l5" d="M1096.62 259.791L1097.59 259.791L1097.59 260.763L1096.62 260.763L1096.62 259.791z"/>
<path class="l5" d="M1203.61 259.791L1204.58 259.791L1204.58 260.763L1203.61 260.763L1203.61 259.791z"/>
<path class="l5" d="M1232.79 230.612L1233.76 230.612L1233.76 231.584L1232.79 231.584L1232.79 230.612z"/>
<path class="l5" d="M1261.96 259.791L1262.94 259.791L1262.94 260.763L1261.96 260.763L1261.96 259.791z"/>
<path class="l5" d="M1699.65 716.926L1700.62 716.926L1700.62 717.899L1699.65 717.899L1699.65 716.926z"/>
<path class="l5" d="M1728.83 687.747L1729.8 687.747L1729.8 688.72L1728.83 688.72L1728.83 687.747z"/>
<path class="l5" d="M1758.01 716.926L1758.98 716.926L1758.98 717.899L1758.01 717.899L1758.01 716.926z"/>
<path class="l5" d="M1699.65 532.127L1700.62 532.127L1700.62 533.099L1699.65 533.099L1699.65 532.127z"/>
<path class="l5" d="M1728.83 502.948L1729.8 502.948L1729.8 503.921L1728.83 503.921L1728.83 502.948z"/>
<path class="l5" d="M1758.01 532.127L1758.98 532.127L1758.98 533.099L1758.01 533.099L1758.01 532.127z"/>
<path class="l5" d="M1699.65 259.791L1700.62 259.791L1700.62 260.763L1699.65 260.763L1699.65 259.791z"/>
<path class="l5" d="M1728.83 230.612L1729.8 230.612L1729.8 231.584L1728.83 231.584L1728.83 230.612z"/>
<path class="l5" d="M1758.01 259.791L1758.98 259.791L1758.98 260.763L1758.01 260.763L1758.01 259.791z"/>
<path class="l1" d="M367.632 717.413L396.811 717.413"/>
<path class="l1" d="M377.359 717.413L377.359 736.865"/>
<path class="l1" d="M338.453 688.234L425.99 688.234"/>
<path class="l1" d="M250.917 668.781L250.917 688.234"/>
<path class="l1" d="M250.917 668.781L513.527 668.781"/>
<path class="l1" d="M513.527 668.781L513.527 688.234"/>
<path class="l1" d="M221.738 649.329L221.738 717.413"/>
<path class="l1" d="M377.359 649.329L377.359 688.234"/>
<path class="l1" d="M455.169 717.413L484.348 717.413"/>
<path class="l1" d="M280.096 717.413L309.275 717.413"/>
<path class="l1" d="M95.2962 668.781L250.917 668.781"/>
<path class="l1" d="M717.779 717.413L746.957 717.413"/>
<path class="l1" d="M737.231 717.413L737.231 736.865"/>
<path class="l1" d="M688.6 688.234L776.136 688.234"/>
<path class="l1" d="M863.673 668.781L863.673 688.234"/>
<path class="l1" d="M601.063 668.781L863.673 668.781"/>
<path class="l1" d="M601.063 668.781L601.063 688.234"/>
<path class="l1" d="M892.852 649.329L892.852 717.413"/>
<path class="l1" d="M737.231 649.329L737.231 688.234"/>
<path class="l1" d="M630.242 717.413L659.421 717.413"/>
<path class="l1" d="M805.315 717.413L834.494 717.413"/>
<path class="l1" d="M513.527 668.781L601.063 668.781"/>
<path class="l1" d="M542.705 717.413L571.884 717.413"/>
<path class="l1" d="M649.695 532.613L678.873 532.613"/>
<path class="l1" d="M737.231 532.613L756.684 532.613"/>
<path class="l1" d="M815.041 532.613L834.494 532.613"/>
<path class="l1" d="M95.2962 347.814L717.779 347.814"/>
<path class="l1" d="M319.001 532.613L348.18 532.613"/>
<path class="l1" d="M406.537 532.613L425.99 532.613"/>
<path class="l1" d="M484.348 532.613L503.8 532.613"/>
<path class="l1" d="M562.158 532.613L591.337 532.613"/>
<path class="l1" d="M289.822 406.171L289.822 503.434"/>
<path class="l1" d="M377.359 386.719L377.359 503.434"/>
<path class="l1" d="M455.169 386.719L455.169 503.434"/>
<path class="l1" d="M95.2962 406.171L532.979 406.171"/>
<path class="l1" d="M532.979 406.171L532.979 503.434"/>
<path class="l1" d="M620.516 503.434L649.695 503.434"/>
<path class="l1" d="M649.695 503.434L649.695 532.613"/>
<path class="l1" d="M708.052 367.266L708.052 503.434"/>
<path class="l1" d="M785.863 367.266L785.863 503.434"/>
<path class="l1" d="M95.2962 367.266L785.863 367.266"/>
<path class="l1" d="M834.494 503.434L863.673 503.434"/>
<path class="l1" d="M834.494 503.434L834.494 532.613"/>
<path class="l1" d="M95.2962 221.372L455.169 221.372"/>
<path class="l1" d="M95.2962 201.919L367.632 201.919"/>
<path class="l1" d="M396.811 260.277L406.537 260.277"/>
<path class="l1" d="M406.537 260.277L425.99 260.277"/>
<path class="l1" d="M455.169 221.372L455.169 231.098"/>
<path class="l1" d="M367.632 221.372L367.632 231.098"/>
<path class="l1" d="M367.632 201.919L532.979 201.919"/>
<path class="l1" d="M532.979 201.919L532.979 231.098"/>
<path class="l1" d="M319.001 260.277L338.453 260.277"/>
<path class="l1" d="M484.348 260.277L503.8 260.277"/>
<path class="l1" d="M289.822 201.919L289.822 231.098"/>
<path class="l1" d="M95.2962 182.467L406.537 182.467"/>
<path class="l1" d="M406.537 182.467L406.537 260.277"/>
<path class="l1" d="M241.191 260.277L260.643 260.277"/>
<path class="l1" d="M717.779 260.277L727.505 260.277"/>
<path class="l1" d="M727.505 260.277L746.957 260.277"/>
<path class="l1" d="M776.136 221.372L776.136 231.098"/>
<path class="l1" d="M688.6 221.372L688.6 231.098"/>
<path class="l1" d="M639.968 260.277L659.421 260.277"/>
<path class="l1" d="M805.315 260.277L824.768 260.277"/>
<path class="l1" d="M562.158 260.277L581.611 260.277"/>
<path class="l1" d="M883.125 163.014L883.125 260.277"/>
<path class="l1" d="M241.191 163.014L883.125 163.014"/>
<path class="l1" d="M241.191 163.014L241.191 260.277"/>
<path class="l1" d="M610.789 201.919L610.789 231.098"/>
<path class="l1" d="M532.979 201.919L610.789 201.919"/>
<path class="l1" d="M455.169 221.372L688.6 221.372"/>
<path class="l1" d="M688.6 221.372L776.136 221.372"/>
<path class="l1" d="M853.947 201.919L853.947 231.098"/>
<path class="l1" d="M610.789 201.919L853.947 201.919"/>
<path class="l1" d="M727.505 182.467L727.505 260.277"/>
<path class="l1" d="M406.537 182.467L727.505 182.467"/>
<path class="l1" d="M328.727 260.277L328.727 328.361"/>
<path class="l1" d="M328.727 328.361L815.041 328.361"/>
<path class="l1" d="M815.041 260.277L815.041 328.361"/>
<path class="l1" d="M494.074 260.277L494.074 308.908"/>
<path class="l1" d="M494.074 308.908L649.695 308.908"/>
<path class="l1" d="M649.695 260.277L649.695 308.908"/>
<path class="l1" d="M571.884 260.277L571.884 347.814"/>
<path class="l1" d="M95.2962 386.719L455.169 386.719"/>
<path class="l1" d="M260.643 328.361L260.643 532.613"/>
<path class="l1" d="M260.643 328.361L328.727 328.361"/>
<path class="l1" d="M746.957 483.982L746.957 532.613"/>
<path class="l1" d="M494.074 483.982L746.957 483.982"/>
<path class="l1" d="M494.074 483.982L494.074 532.613"/>
<path class="l1" d="M328.727 483.982L494.074 483.982"/>
<path class="l1" d="M328.727 483.982L328.727 532.613"/>
<path class="l1" d="M581.611 328.361L581.611 532.613"/>
<path class="l1" d="M416.264 308.908L416.264 532.613"/>
<path class="l1" d="M416.264 308.908L494.074 308.908"/>
<path class="l1" d="M95.2962 610.423L834.494 610.423"/>
<path class="l1" d="M834.494 532.613L834.494 610.423"/>
<path class="l1" d="M649.695 532.613L649.695 610.423"/>
<path class="l1" d="M717.779 347.814L951.21 347.814"/>
<path class="l1" d="M134.201 649.329L892.852 649.329"/>
<path class="l1" d="M377.359 736.865L377.359 804.949"/>
<path class="l1" d="M737.231 736.865L737.231 804.949"/>
<path class="l1" d="M377.359 804.949L737.231 804.949"/>
<path class="l1" d="M114.749 804.949L377.359 804.949"/>
<path class="l1" d="M114.749 610.423L114.749 804.949"/>
<path class="l1" d="M951.21 347.814L951.21 620.15"/>
<path class="l1" d="M562.158 639.602L562.158 717.413"/>
<path class="l1" d="M951.21 620.15L951.21 629.876"/>
<path class="l1" d="M562.158 629.876L951.21 629.876"/>
<path class="l1" d="M562.158 629.876L562.158 639.602"/>
<path class="l1" d="M163.38 688.234L192.559 688.234"/>
<path class="l1" d="M163.38 688.234L163.38 717.413"/>
<path class="l1" d="M114.749 717.413L163.38 717.413"/>
<path class="l1" d="M221.738 532.613L260.643 532.613"/>
<path class="l1" d="M163.38 503.434L192.559 503.434"/>
<path class="l1" d="M163.38 503.434L163.38 532.613"/>
<path class="l1" d="M163.38 532.613L163.38 610.423"/>
<path class="l1" d="M241.191 260.277L241.191 318.635"/>
<path class="l1" d="M134.201 318.635L241.191 318.635"/>
<path class="l1" d="M134.201 318.635L134.201 649.329"/>
<path class="l1" d="M221.738 260.277L241.191 260.277"/>
<path class="l1" d="M163.38 231.098L192.559 231.098"/>
<path class="l1" d="M163.38 231.098L163.38 260.277"/>
<path class="l1" d="M134.201 260.277L163.38 260.277"/>
<path class="l1" d="M134.201 182.467L134.201 260.277"/>
<path class="l1" d="M1525.06 717.413L1554.24 717.413"/>
<path class="l1" d="M1544.51 717.413L1544.51 736.865"/>
<path class="l1" d="M1495.88 688.234L1583.42 688.234"/>
<path class="l1" d="M1670.95 668.781L1670.95 688.234"/>
<path class="l1" d="M1408.35 668.781L1670.95 668.781"/>
<path class="l1" d="M1408.35 668.781L1408.35 688.234"/>
<path class="l1" d="M1700.13 649.329L1700.13 717.413"/>
<path class="l1" d="M1544.51 649.329L1544.51 688.234"/>
<path class="l1" d="M1437.52 717.413L1466.7 717.413"/>
<path class="l1" d="M1612.6 717.413L1641.78 717.413"/>
<path class="l1" d="M1670.95 668.781L1826.58 668.781"/>
<path class="l1" d="M1174.91 717.413L1204.09 717.413"/>
<path class="l1" d="M1184.64 717.413L1184.64 736.865"/>
<path class="l1" d="M1145.74 688.234L1233.27 688.234"/>
<path class="l1" d="M1058.2 668.781L1058.2 688.234"/>
<path class="l1" d="M1058.2 668.781L1320.81 668.781"/>
<path class="l1" d="M1320.81 668.781L1320.81 688.234"/>
<path class="l1" d="M1029.02 649.329L1029.02 717.413"/>
<path class="l1" d="M1184.64 649.329L1184.64 688.234"/>
<path class="l1" d="M1262.45 717.413L1291.63 717.413"/>
<path class="l1" d="M1087.38 717.413L1116.56 717.413"/>
<path class="l1" d="M1320.81 668.781L1408.35 668.781"/>
<path class="l1" d="M1349.99 717.413L1379.17 717.413"/>
<path class="l1" d="M1243 532.613L1272.18 532.613"/>
<path class="l1" d="M1165.19 532.613L1184.64 532.613"/>
<path class="l1" d="M1087.38 532.613L1106.83 532.613"/>
<path class="l1" d="M1204.09 347.814L1826.58 347.814"/>
<path class="l1" d="M1573.69 532.613L1602.87 532.613"/>
<path class="l1" d="M1495.88 532.613L1515.33 532.613"/>
<path class="l1" d="M1418.07 532.613L1437.52 532.613"/>
<path class="l1" d="M1330.53 532.613L1359.71 532.613"/>
<path class="l1" d="M1632.05 406.171L1632.05 503.434"/>
<path class="l1" d="M1544.51 386.719L1544.51 503.434"/>
<path class="l1" d="M1466.7 386.719L1466.7 503.434"/>
<path class="l1" d="M1388.89 406.171L1826.58 406.171"/>
<path class="l1" d="M1388.89 406.171L1388.89 503.434"/>
<path class="l1" d="M1272.18 503.434L1301.36 503.434"/>
<path class="l1" d="M1272.18 503.434L1272.18 532.613"/>
<path class="l1" d="M1213.82 367.266L1213.82 503.434"/>
<path class="l1" d="M1136.01 367.266L1136.01 503.434"/>
<path class="l1" d="M1136.01 367.266L1826.58 367.266"/>
<path class="l1" d="M1058.2 503.434L1087.38 503.434"/>
<path class="l1" d="M1087.38 503.434L1087.38 532.613"/>
<path class="l1" d="M1466.7 221.372L1826.58 221.372"/>
<path class="l1" d="M1554.24 201.919L1826.58 201.919"/>
<path class="l1" d="M1515.33 260.277L1525.06 260.277"/>
<path class="l1" d="M1495.88 260.277L1515.33 260.277"/>
<path class="l1" d="M1466.7 221.372L1466.7 231.098"/>
<path class="l1" d="M1554.24 221.372L1554.24 231.098"/>
<path class="l1" d="M1388.89 201.919L1554.24 201.919"/>
<path class="l1" d="M1388.89 201.919L1388.89 231.098"/>
<path class="l1" d="M1583.42 260.277L1602.87 260.277"/>
<path class="l1" d="M1418.07 260.277L1437.52 260.277"/>
<path class="l1" d="M1632.05 201.919L1632.05 231.098"/>
<path class="l1" d="M1515.33 182.467L1826.58 182.467"/>
<path class="l1" d="M1515.33 182.467L1515.33 260.277"/>
<path class="l1" d="M1661.23 260.277L1680.68 260.277"/>
<path class="l1" d="M1194.37 260.277L1204.09 260.277"/>
<path class="l1" d="M1174.91 260.277L1194.37 260.277"/>
<path class="l1" d="M1145.74 221.372L1145.74 231.098"/>
<path class="l1" d="M1233.27 221.372L1233.27 231.098"/>
<path class="l1" d="M1262.45 260.277L1281.9 260.277"/>
<path class="l1" d="M1097.1 260.277L1116.56 260.277"/>
<path class="l1" d="M1340.26 260.277L1359.71 260.277"/>
<path class="l1" d="M1038.75 163.014L1038.75 260.277"/>
<path class="l1" d="M1038.75 163.014L1680.68 163.014"/>
<path class="l1" d="M1680.68 163.014L1680.68 260.277"/>
<path class="l1" d="M1311.08 201.919L1311.08 231.098"/>
<path class="l1" d="M1311.08 201.919L1388.89 201.919"/>
<path class="l1" d="M1233.27 221.372L1466.7 221.372"/>
<path class="l1" d="M1145.74 221.372L1233.27 221.372"/>
<path class="l1" d="M1067.92 201.919L1067.92 231.098"/>
<path class="l1" d="M1067.92 201.919L1311.08 201.919"/>
<path class="l1" d="M1194.37 182.467L1194.37 260.277"/>
<path class="l1" d="M1194.37 182.467L1515.33 182.467"/>
<path class="l1" d="M1593.14 260.277L1593.14 328.361"/>
<path class="l1" d="M1106.83 328.361L1593.14 328.361"/>
<path class="l1" d="M1106.83 260.277L1106.83 328.361"/>
<path class="l1" d="M1427.8 260.277L1427.8 308.908"/>
<path class="l1" d="M1272.18 308.908L1427.8 308.908"/>
<path class="l1" d="M1272.18 260.277L1272.18 308.908"/>
<path class="l1" d="M1349.99 260.277L1349.99 347.814"/>
<path class="l1" d="M1466.7 386.719L1826.58 386.719"/>
<path class="l1" d="M1661.23 328.361L1661.23 532.613"/>
<path class="l1" d="M1593.14 328.361L1661.23 328.361"/>
<path class="l1" d="M1174.91 483.982L1174.91 532.613"/>
<path class="l1" d="M1174.91 483.982L1427.8 483.982"/>
<path class="l1" d="M1427.8 483.982L1427.8 532.613"/>
<path class="l1" d="M1427.8 483.982L1593.14 483.982"/>
<path class="l1" d="M1593.14 483.982L1593.14 532.613"/>
<path class="l1" d="M1340.26 328.361L1340.26 532.613"/>
<path class="l1" d="M1505.61 308.908L1505.61 532.613"/>
<path class="l1" d="M1427.8 308.908L1505.61 308.908"/>
<path class="l1" d="M1087.38 610.423L1826.58 610.423"/>
<path class="l1" d="M1087.38 532.613L1087.38 610.423"/>
<path class="l1" d="M1272.18 532.613L1272.18 610.423"/>
<path class="l1" d="M970.662 347.814L1204.09 347.814"/>
<path class="l1" d="M1029.02 649.329L1787.67 649.329"/>
<path class="l1" d="M1544.51 736.865L1544.51 804.949"/>
<path class="l1" d="M1184.64 736.865L1184.64 804.949"/>
<path class="l1" d="M1184.64 804.949L1544.51 804.949"/>
<path class="l1" d="M1544.51 804.949L1807.12 804.949"/>
<path class="l1" d="M1807.12 610.423L1807.12 804.949"/>
<path class="l1" d="M970.662 347.814L970.662 620.15"/>
<path class="l1" d="M1359.71 639.602L1359.71 717.413"/>
<path class="l1" d="M970.662 620.15L970.662 629.876"/>
<path class="l1" d="M970.662 629.876L1359.71 629.876"/>
<path class="l1" d="M1359.71 629.876L1359.71 639.602"/>
<path class="l1" d="M1729.31 688.234L1758.49 688.234"/>
<path class="l1" d="M1758.49 688.234L1758.49 717.413"/>
<path class="l1" d="M1758.49 717.413L1807.12 717.413"/>
<path class="l1" d="M1661.23 532.613L1700.13 532.613"/>
<path class="l1" d="M1729.31 503.434L1758.49 503.434"/>
<path class="l1" d="M1758.49 503.434L1758.49 532.613"/>
<path class="l1" d="M1758.49 532.613L1758.49 610.423"/>
<path class="l1" d="M1680.68 260.277L1680.68 318.635"/>
<path class="l1" d="M1680.68 318.635L1787.67 318.635"/>
<path class="l1" d="M1787.67 318.635L1787.67 649.329"/>
<path class="l1" d="M1680.68 260.277L1700.13 260.277"/>
<path class="l1" d="M1729.31 231.098L1758.49 231.098"/>
<path class="l1" d="M1758.49 231.098L1758.49 260.277"/>
<path class="l1" d="M1758.49 260.277L1787.67 260.277"/>
<path class="l1" d="M1787.67 182.467L1787.67 260.277"/>
<path class="l1" d="M951.21 474.255L970.662 474.255"/>
<path class="l1" d="M892.852 649.329L1029.02 649.329"/>
<path class="l1" d="M883.125 163.014L1038.75 163.014"/>
<path class="l1" d="M727.505 182.467L1194.37 182.467"/>
<path class="l1" d="M853.947 201.919L1067.92 201.919"/>
<path class="l1" d="M776.136 221.372L1145.74 221.372"/>
<path class="l1" d="M815.041 328.361L1106.83 328.361"/>
<path class="l1" d="M649.695 308.908L1272.18 308.908"/>
<path class="l1" d="M785.863 367.266L1136.01 367.266"/>
<path class="l1" d="M455.169 386.719L1466.7 386.719"/>
<path class="l1" d="M532.979 406.171L1388.89 406.171"/>
<path class="l1" d="M746.957 483.982L1174.91 483.982"/>
<path class="l1" d="M863.673 668.781L1058.2 668.781"/>
<path class="l1" d="M737.231 804.949L1184.64 804.949"/>
<path class="l1" d="M892.852 532.613L1029.02 532.613"/>
<path class="l1" d="M1029.02 503.434L1058.2 503.434"/>
<path class="l1" d="M1029.02 503.434L1029.02 532.613"/>
<path class="l1" d="M863.673 503.434L892.852 503.434"/>
<path class="l1" d="M892.852 503.434L892.852 532.613"/>
<circle class="l1" cx="134.201" cy="182.467" r="3.89051"/>
<circle class="l1" cx="241.191" cy="260.277" r="3.89051"/>
<circle class="l1" cx="883.125" cy="163.014" r="3.89051"/>
<circle class="l1" cx="406.537" cy="182.467" r="3.89051"/>
<circle class="l1" cx="289.822" cy="201.919" r="3.89051"/>
<circle class="l1" cx="532.979" cy="201.919" r="3.89051"/>
<circle class="l1" cx="367.632" cy="221.372" r="3.89051"/>
<circle class="l1" cx="455.169" cy="221.372" r="3.89051"/>
<circle class="l1" cx="241.191" cy="260.277" r="3.89051"/>
<circle class="l1" cx="241.191" cy="260.277" r="3.89051"/>
<circle class="l1" cx="163.38" cy="610.423" r="3.89051"/>
<circle class="l1" cx="114.749" cy="610.423" r="3.89051"/>
<circle class="l1" cx="328.727" cy="532.613" r="3.89051"/>
<circle class="l1" cx="494.074" cy="483.982" r="3.89051"/>
<circle class="l1" cx="328.727" cy="328.361" r="3.89051"/>
<circle class="l1" cx="455.169" cy="386.719" r="3.89051"/>
<circle class="l1" cx="328.727" cy="328.361" r="3.89051"/>
<circle class="l1" cx="815.041" cy="328.361" r="3.89051"/>
<circle class="l1" cx="328.727" cy="260.277" r="3.89051"/>
<circle class="l1" cx="328.727" cy="328.361" r="3.89051"/>
<circle class="l1" cx="241.191" cy="260.277" r="3.89051"/>
<circle class="l1" cx="785.863" cy="367.266" r="3.89051"/>
<circle class="l1" cx="532.979" cy="406.171" r="3.89051"/>
<circle class="l1" cx="377.359" cy="386.719" r="3.89051"/>
<circle class="l1" cx="289.822" cy="406.171" r="3.89051"/>
<circle class="l1" cx="114.749" cy="717.413" r="3.89051"/>
<circle class="l1" cx="377.359" cy="804.949" r="3.89051"/>
<circle class="l1" cx="377.359" cy="804.949" r="3.89051"/>
<circle class="l1" cx="737.231" cy="804.949" r="3.89051"/>
<circle class="l1" cx="377.359" cy="804.949" r="3.89051"/>
<circle class="l1" cx="892.852" cy="649.329" r="3.89051"/>
<circle class="l1" cx="250.917" cy="668.781" r="3.89051"/>
<circle class="l1" cx="377.359" cy="649.329" r="3.89051"/>
<circle class="l1" cx="377.359" cy="688.234" r="3.89051"/>
<circle class="l1" cx="221.738" cy="649.329" r="3.89051"/>
<circle class="l1" cx="250.917" cy="668.781" r="3.89051"/>
<circle class="l1" cx="513.527" cy="668.781" r="3.89051"/>
<circle class="l1" cx="250.917" cy="668.781" r="3.89051"/>
<circle class="l1" cx="377.359" cy="717.413" r="3.89051"/>
<circle class="l1" cx="727.505" cy="182.467" r="3.89051"/>
<circle class="l1" cx="1194.37" cy="182.467" r="3.89051"/>
<circle class="l1" cx="406.537" cy="182.467" r="3.89051"/>
<circle class="l1" cx="727.505" cy="182.467" r="3.89051"/>
<circle class="l1" cx="727.505" cy="182.467" r="3.89051"/>
<circle class="l1" cx="727.505" cy="260.277" r="3.89051"/>
<circle class="l1" cx="610.789" cy="201.919" r="3.89051"/>
<circle class="l1" cx="853.947" cy="201.919" r="3.89051"/>
<circle class="l1" cx="688.6" cy="221.372" r="3.89051"/>
<circle class="l1" cx="776.136" cy="221.372" r="3.89051"/>
<circle class="l1" cx="455.169" cy="221.372" r="3.89051"/>
<circle class="l1" cx="688.6" cy="221.372" r="3.89051"/>
<circle class="l1" cx="532.979" cy="201.919" r="3.89051"/>
<circle class="l1" cx="610.789" cy="201.919" r="3.89051"/>
<circle class="l1" cx="610.789" cy="201.919" r="3.89051"/>
<circle class="l1" cx="688.6" cy="221.372" r="3.89051"/>
<circle class="l1" cx="406.537" cy="182.467" r="3.89051"/>
<circle class="l1" cx="406.537" cy="260.277" r="3.89051"/>
<circle class="l1" cx="532.979" cy="201.919" r="3.89051"/>
<circle class="l1" cx="455.169" cy="221.372" r="3.89051"/>
<circle class="l1" cx="746.957" cy="483.982" r="3.89051"/>
<circle class="l1" cx="1174.91" cy="483.982" r="3.89051"/>
<circle class="l1" cx="532.979" cy="406.171" r="3.89051"/>
<circle class="l1" cx="1388.89" cy="406.171" r="3.89051"/>
<circle class="l1" cx="455.169" cy="386.719" r="3.89051"/>
<circle class="l1" cx="1466.7" cy="386.719" r="3.89051"/>
<circle class="l1" cx="649.695" cy="308.908" r="3.89051"/>
<circle class="l1" cx="1272.18" cy="308.908" r="3.89051"/>
<circle class="l1" cx="649.695" cy="532.613" r="3.89051"/>
<circle class="l1" cx="649.695" cy="610.423" r="3.89051"/>
<circle class="l1" cx="494.074" cy="308.908" r="3.89051"/>
<circle class="l1" cx="416.264" cy="532.613" r="3.89051"/>
<circle class="l1" cx="581.611" cy="328.361" r="3.89051"/>
<circle class="l1" cx="581.611" cy="532.613" r="3.89051"/>
<circle class="l1" cx="494.074" cy="483.982" r="3.89051"/>
<circle class="l1" cx="494.074" cy="532.613" r="3.89051"/>
<circle class="l1" cx="494.074" cy="483.982" r="3.89051"/>
<circle class="l1" cx="746.957" cy="483.982" r="3.89051"/>
<circle class="l1" cx="746.957" cy="483.982" r="3.89051"/>
<circle class="l1" cx="746.957" cy="532.613" r="3.89051"/>
<circle class="l1" cx="571.884" cy="260.277" r="3.89051"/>
<circle class="l1" cx="571.884" cy="347.814" r="3.89051"/>
<circle class="l1" cx="649.695" cy="260.277" r="3.89051"/>
<circle class="l1" cx="649.695" cy="308.908" r="3.89051"/>
<circle class="l1" cx="494.074" cy="308.908" r="3.89051"/>
<circle class="l1" cx="649.695" cy="308.908" r="3.89051"/>
<circle class="l1" cx="494.074" cy="260.277" r="3.89051"/>
<circle class="l1" cx="494.074" cy="308.908" r="3.89051"/>
<circle class="l1" cx="727.505" cy="260.277" r="3.89051"/>
<circle class="l1" cx="727.505" cy="260.277" r="3.89051"/>
<circle class="l1" cx="406.537" cy="260.277" r="3.89051"/>
<circle class="l1" cx="406.537" cy="260.277" r="3.89051"/>
<circle class="l1" cx="708.052" cy="367.266" r="3.89051"/>
<circle class="l1" cx="649.695" cy="532.613" r="3.89051"/>
<circle class="l1" cx="532.979" cy="406.171" r="3.89051"/>
<circle class="l1" cx="455.169" cy="386.719" r="3.89051"/>
<circle class="l1" cx="649.695" cy="532.613" r="3.89051"/>
<circle class="l1" cx="737.231" cy="804.949" r="3.89051"/>
<circle class="l1" cx="1184.64" cy="804.949" r="3.89051"/>
<circle class="l1" cx="562.158" cy="717.413" r="3.89051"/>
<circle class="l1" cx="737.231" cy="804.949" r="3.89051"/>
<circle class="l1" cx="513.527" cy="668.781" r="3.89051"/>
<circle class="l1" cx="601.063" cy="668.781" r="3.89051"/>
<circle class="l1" cx="737.231" cy="649.329" r="3.89051"/>
<circle class="l1" cx="737.231" cy="688.234" r="3.89051"/>
<circle class="l1" cx="601.063" cy="668.781" r="3.89051"/>
<circle class="l1" cx="601.063" cy="668.781" r="3.89051"/>
<circle class="l1" cx="863.673" cy="668.781" r="3.89051"/>
<circle class="l1" cx="737.231" cy="717.413" r="3.89051"/>
<circle class="l1" cx="513.527" cy="668.781" r="3.89051"/>
<circle class="l1" cx="776.136" cy="221.372" r="3.89051"/>
<circle class="l1" cx="1145.74" cy="221.372" r="3.89051"/>
<circle class="l1" cx="853.947" cy="201.919" r="3.89051"/>
<circle class="l1" cx="1067.92" cy="201.919" r="3.89051"/>
<circle class="l1" cx="883.125" cy="163.014" r="3.89051"/>
<circle class="l1" cx="1038.75" cy="163.014" r="3.89051"/>
<circle class="l1" cx="1067.92" cy="201.919" r="3.89051"/>
<circle class="l1" cx="1311.08" cy="201.919" r="3.89051"/>
<circle class="l1" cx="1067.92" cy="201.919" r="3.89051"/>
<circle class="l1" cx="1145.74" cy="221.372" r="3.89051"/>
<circle class="l1" cx="1233.27" cy="221.372" r="3.89051"/>
<circle class="l1" cx="1038.75" cy="163.014" r="3.89051"/>
<circle class="l1" cx="1038.75" cy="163.014" r="3.89051"/>
<circle class="l1" cx="1145.74" cy="221.372" r="3.89051"/>
<circle class="l1" cx="853.947" cy="201.919" r="3.89051"/>
<circle class="l1" cx="883.125" cy="163.014" r="3.89051"/>
<circle class="l1" cx="776.136" cy="221.372" r="3.89051"/>
<circle class="l1" cx="785.863" cy="367.266" r="3.89051"/>
<circle class="l1" cx="1136.01" cy="367.266" r="3.89051"/>
<circle class="l1" cx="815.041" cy="328.361" r="3.89051"/>
<circle class="l1" cx="1106.83" cy="328.361" r="3.89051"/>
<circle class="l1" cx="951.21" cy="474.255" r="3.89051"/>
<circle class="l1" cx="970.662" cy="474.255" r="3.89051"/>
<circle class="l1" cx="1087.38" cy="532.613" r="3.89051"/>
<circle class="l1" cx="1106.83" cy="260.277" r="3.89051"/>
<circle class="l1" cx="1106.83" cy="328.361" r="3.89051"/>
<circle class="l1" cx="1106.83" cy="328.361" r="3.89051"/>
<circle class="l1" cx="1593.14" cy="328.361" r="3.89051"/>
<circle class="l1" cx="1087.38" cy="532.613" r="3.89051"/>
<circle class="l1" cx="1136.01" cy="367.266" r="3.89051"/>
<circle class="l1" cx="1136.01" cy="367.266" r="3.89051"/>
<circle class="l1" cx="1087.38" cy="532.613" r="3.89051"/>
<circle class="l1" cx="834.494" cy="532.613" r="3.89051"/>
<circle class="l1" cx="815.041" cy="260.277" r="3.89051"/>
<circle class="l1" cx="815.041" cy="328.361" r="3.89051"/>
<circle class="l1" cx="834.494" cy="532.613" r="3.89051"/>
<circle class="l1" cx="785.863" cy="367.266" r="3.89051"/>
<circle class="l1" cx="834.494" cy="532.613" r="3.89051"/>
<circle class="l1" cx="863.673" cy="668.781" r="3.89051"/>
<circle class="l1" cx="1058.2" cy="668.781" r="3.89051"/>
<circle class="l1" cx="892.852" cy="649.329" r="3.89051"/>
<circle class="l1" cx="1029.02" cy="649.329" r="3.89051"/>
<circle class="l1" cx="1029.02" cy="649.329" r="3.89051"/>
<circle class="l1" cx="1029.02" cy="649.329" r="3.89051"/>
<circle class="l1" cx="1058.2" cy="668.781" r="3.89051"/>
<circle class="l1" cx="1320.81" cy="668.781" r="3.89051"/>
<circle class="l1" cx="1058.2" cy="668.781" r="3.89051"/>
<circle class="l1" cx="892.852" cy="649.329" r="3.89051"/>
<circle class="l1" cx="863.673" cy="668.781" r="3.89051"/>
<circle class="l1" cx="1194.37" cy="182.467" r="3.89051"/>
<circle class="l1" cx="1515.33" cy="182.467" r="3.89051"/>
<circle class="l1" cx="1194.37" cy="182.467" r="3.89051"/>
<circle class="l1" cx="1194.37" cy="260.277" r="3.89051"/>
<circle class="l1" cx="1233.27" cy="221.372" r="3.89051"/>
<circle class="l1" cx="1466.7" cy="221.372" r="3.89051"/>
<circle class="l1" cx="1311.08" cy="201.919" r="3.89051"/>
<circle class="l1" cx="1388.89" cy="201.919" r="3.89051"/>
<circle class="l1" cx="1311.08" cy="201.919" r="3.89051"/>
<circle class="l1" cx="1233.27" cy="221.372" r="3.89051"/>
<circle class="l1" cx="1515.33" cy="182.467" r="3.89051"/>
<circle class="l1" cx="1515.33" cy="260.277" r="3.89051"/>
<circle class="l1" cx="1515.33" cy="182.467" r="3.89051"/>
<circle class="l1" cx="1388.89" cy="201.919" r="3.89051"/>
<circle class="l1" cx="1388.89" cy="201.919" r="3.89051"/>
<circle class="l1" cx="1466.7" cy="221.372" r="3.89051"/>
<circle class="l1" cx="1466.7" cy="221.372" r="3.89051"/>
<circle class="l1" cx="1272.18" cy="532.613" r="3.89051"/>
<circle class="l1" cx="1272.18" cy="610.423" r="3.89051"/>
<circle class="l1" cx="1427.8" cy="308.908" r="3.89051"/>
<circle class="l1" cx="1505.61" cy="532.613" r="3.89051"/>
<circle class="l1" cx="1340.26" cy="328.361" r="3.89051"/>
<circle class="l1" cx="1340.26" cy="532.613" r="3.89051"/>
<circle class="l1" cx="1427.8" cy="483.982" r="3.89051"/>
<circle class="l1" cx="1427.8" cy="483.982" r="3.89051"/>
<circle class="l1" cx="1427.8" cy="532.613" r="3.89051"/>
<circle class="l1" cx="1174.91" cy="483.982" r="3.89051"/>
<circle class="l1" cx="1427.8" cy="483.982" r="3.89051"/>
<circle class="l1" cx="1174.91" cy="483.982" r="3.89051"/>
<circle class="l1" cx="1174.91" cy="532.613" r="3.89051"/>
<circle class="l1" cx="1466.7" cy="386.719" r="3.89051"/>
<circle class="l1" cx="1349.99" cy="260.277" r="3.89051"/>
<circle class="l1" cx="1349.99" cy="347.814" r="3.89051"/>
<circle class="l1" cx="1272.18" cy="260.277" r="3.89051"/>
<circle class="l1" cx="1272.18" cy="308.908" r="3.89051"/>
<circle class="l1" cx="1272.18" cy="308.908" r="3.89051"/>
<circle class="l1" cx="1427.8" cy="308.908" r="3.89051"/>
<circle class="l1" cx="1427.8" cy="260.277" r="3.89051"/>
<circle class="l1" cx="1427.8" cy="308.908" r="3.89051"/>
<circle class="l1" cx="1194.37" cy="260.277" r="3.89051"/>
<circle class="l1" cx="1194.37" cy="260.277" r="3.89051"/>
<circle class="l1" cx="1515.33" cy="260.277" r="3.89051"/>
<circle class="l1" cx="1515.33" cy="260.277" r="3.89051"/>
<circle class="l1" cx="1213.82" cy="367.266" r="3.89051"/>
<circle class="l1" cx="1272.18" cy="532.613" r="3.89051"/>
<circle class="l1" cx="1388.89" cy="406.171" r="3.89051"/>
<circle class="l1" cx="1388.89" cy="406.171" r="3.89051"/>
<circle class="l1" cx="1466.7" cy="386.719" r="3.89051"/>
<circle class="l1" cx="1544.51" cy="386.719" r="3.89051"/>
<circle class="l1" cx="1272.18" cy="532.613" r="3.89051"/>
<circle class="l1" cx="1359.71" cy="717.413" r="3.89051"/>
<circle class="l1" cx="1544.51" cy="804.949" r="3.89051"/>
<circle class="l1" cx="1184.64" cy="804.949" r="3.89051"/>
<circle class="l1" cx="1544.51" cy="804.949" r="3.89051"/>
<circle class="l1" cx="1184.64" cy="804.949" r="3.89051"/>
<circle class="l1" cx="1544.51" cy="804.949" r="3.89051"/>
<circle class="l1" cx="1320.81" cy="668.781" r="3.89051"/>
<circle class="l1" cx="1408.35" cy="668.781" r="3.89051"/>
<circle class="l1" cx="1184.64" cy="649.329" r="3.89051"/>
<circle class="l1" cx="1184.64" cy="688.234" r="3.89051"/>
<circle class="l1" cx="1320.81" cy="668.781" r="3.89051"/>
<circle class="l1" cx="1184.64" cy="717.413" r="3.89051"/>
<circle class="l1" cx="1544.51" cy="649.329" r="3.89051"/>
<circle class="l1" cx="1544.51" cy="688.234" r="3.89051"/>
<circle class="l1" cx="1408.35" cy="668.781" r="3.89051"/>
<circle class="l1" cx="1408.35" cy="668.781" r="3.89051"/>
<circle class="l1" cx="1670.95" cy="668.781" r="3.89051"/>
<circle class="l1" cx="1544.51" cy="717.413" r="3.89051"/>
<circle class="l1" cx="1787.67" cy="182.467" r="3.89051"/>
<circle class="l1" cx="1680.68" cy="260.277" r="3.89051"/>
<circle class="l1" cx="1632.05" cy="201.919" r="3.89051"/>
<circle class="l1" cx="1554.24" cy="221.372" r="3.89051"/>
<circle class="l1" cx="1680.68" cy="260.277" r="3.89051"/>
<circle class="l1" cx="1680.68" cy="260.277" r="3.89051"/>
<circle class="l1" cx="1758.49" cy="610.423" r="3.89051"/>
<circle class="l1" cx="1807.12" cy="610.423" r="3.89051"/>
<circle class="l1" cx="1593.14" cy="532.613" r="3.89051"/>
<circle class="l1" cx="1593.14" cy="328.361" r="3.89051"/>
<circle class="l1" cx="1593.14" cy="260.277" r="3.89051"/>
<circle class="l1" cx="1593.14" cy="328.361" r="3.89051"/>
<circle class="l1" cx="1680.68" cy="260.277" r="3.89051"/>
<circle class="l1" cx="1632.05" cy="406.171" r="3.89051"/>
<circle class="l1" cx="1807.12" cy="717.413" r="3.89051"/>
<circle class="l1" cx="1670.95" cy="668.781" r="3.89051"/>
<circle class="l1" cx="1700.13" cy="649.329" r="3.89051"/>
<circle class="l1" cx="1670.95" cy="668.781" r="3.89051"/>
</svg>
