<svg xmlns="http://www.w3.org/2000/svg" xmlns:xlink="http://www.w3.org/1999/xlink" width="1850" height="919" version="1.1">
<style type="text/css">
.l0{
 fill: #000000;
  stroke: #000000;
  stroke-linecap:round;
  stroke-linejoin:round;
  stroke-width: 1.50199;
}
.l1{
 fill: #00ccee;
  stroke: #00ccee;
  stroke-linecap:round;
  stroke-linejoin:round;
  stroke-width: 1.50199;
}
.l2{
  fill: none;
  stroke: #3f3f3f;
  stroke-linecap:round;
  stroke-linejoin:round;
  stroke-width: 1.50199;
}
.l3{
 fill: #cccccc; fill-opacity: 0.5;
  stroke: #cccccc;
  stroke-linecap:round;
  stroke-linejoin:round;
  stroke-width: 1.50199;
}
.l4{
 fill: #88dd00;
  stroke: #88dd00;
  stroke-linecap:round;
  stroke-linejoin:round;
  stroke-width: 1.50199;
}
.l5{
 fill: #bb2200;
  stroke: #bb2200;
  stroke-linecap:round;
  stroke-linejoin:round;
  stroke-width: 1.50199;
}
.l6{
 fill: #00ccee; fill-opacity: 0.5;
  stroke: #00ccee;
  stroke-linecap:round;
  stroke-linejoin:round;
  stroke-width: 1.50199;
}
.l7{
 fill: #ff0000; fill-opacity: 0.5;
  stroke: #ff0000;
  stroke-linecap:round;
  stroke-linejoin:round;
  stroke-width: 1.50199;
}
.l8{
 fill: #ffff00; fill-opacity: 0.5;
  stroke: #ffff00;
  stroke-linecap:round;
  stroke-linejoin:round;
  stroke-width: 1.50199;
}
.l9{
 fill: #ffffff; fill-opacity: 0.5;
  stroke: #ffffff;
  stroke-linecap:round;
  stroke-linejoin:round;
  stroke-width: 1.50199;
}
.l10{
 fill: #ff00ff;
  stroke: #ff00ff;
  stroke-linecap:round;
  stroke-linejoin:round;
  stroke-width: 1.50199;
}
.l11{
 fill: #00ff00; fill-opacity: 0.5;
  stroke: #00ff00;
  stroke-linecap:round;
  stroke-linejoin:round;
  stroke-width: 1.50199;
}
.l12{
 fill: #0044dd; fill-opacity: 0.5;
  stroke: #0044dd;
  stroke-linecap:round;
  stroke-linejoin:round;
  stroke-width: 1.50199;
}
.l13{
 fill: #aaaa00; fill-opacity: 0.5;
  stroke: #aaaa00;
  stroke-linecap:round;
  stroke-linejoin:round;
  stroke-width: 1.50199;
}
.l14{
  fill: none;
  stroke: #aaccaa;
  stroke-linecap:round;
  stroke-linejoin:round;
  stroke-width: 1.50199;
}
.l15{
 fill: #ff7777; fill-opacity: 0.5;
  stroke: #ff7777;
  stroke-linecap:round;
  stroke-linejoin:round;
  stroke-width: 1.50199;
}
.l16{
 fill: #bfff81; fill-opacity: 0.5;
  stroke: #bfff81;
  stroke-linecap:round;
  stroke-linejoin:round;
  stroke-width: 1.50199;
}
.l17{
  fill: none;
  stroke: #00ffcc;
  stroke-linecap:round;
  stroke-linejoin:round;
  stroke-width: 1.50199;
}
.l18{
 fill: #ce0097; fill-opacity: 0.5;
  stroke: #ce0097;
  stroke-linecap:round;
  stroke-linejoin:round;
  stroke-width: 1.50199;
}
.l19{
  fill: none;
  stroke: #d2d46b;
  stroke-linecap:round;
  stroke-linejoin:round;
  stroke-width: 1.50199;
}
.l20{
  fill: none;
  stroke: #ef6158;
  stroke-linecap:round;
  stroke-linejoin:round;
  stroke-width: 1.50199;
}
.l21{
  fill: none;
  stroke: #fdb200;
  stroke-linecap:round;
  stroke-linejoin:round;
  stroke-width: 1.50199;
}
text {font-family: Sans-Serif;}
</style>
<rect class="l0" x="0" y="0" width="1850" height="919"/>
<text fill="#00ccee"  xml:space="preserve" font-size="14.4636" transform="translate(668.755, 687.008)" >VDD</text>
<text fill="#00ccee"  xml:space="preserve" font-size="14.4636" transform="translate(668.255, 844.334)" >GND</text>
<text fill="#00ccee"  xml:space="preserve" font-size="14.4636" transform="translate(417.924, 482.745)" >GND</text>
<text fill="#00ccee"  xml:space="preserve" font-size="23.8649" transform="translate(316.457, 350.47)" >Vin</text>
<text fill="#00ccee"  xml:space="preserve" font-size="14.4636" transform="translate(418.424, 241.974)" >VDD</text>
<text fill="#00ccee"  xml:space="preserve" font-size="14.4636" transform="translate(390.109, 621.818)" >GND</text>
<text fill="#00ccee"  xml:space="preserve" font-size="23.8649" transform="translate(583.927, 359.603)" >Vout</text>
<text fill="#00ccee"  xml:space="preserve" font-size="14.4636" transform="translate(529.182, 482.745)" >GND</text>
<text fill="#00ccee"  xml:space="preserve" font-size="14.4636" transform="translate(556.997, 844.334)" >GND</text>
<text fill="#00ccee"  xml:space="preserve" font-size="23.8649" transform="translate(579.093, 705.167) rotate(270)" >Vin</text>
<text fill="#cccccc"  xml:space="preserve" font-size="14.4636" transform="translate(712.57, 751.521)" >Vdd</text>
<text fill="#cccccc"  xml:space="preserve" font-size="14.4636" transform="translate(712.57, 772.382)" >1.8</text>
<text fill="#cccccc"  xml:space="preserve" font-size="21.6954" transform="translate(1122.84, 547.548)" >TT_MODELS</text>
<text fill="#cccccc"  xml:space="preserve" font-size="21.6954" transform="translate(1108.93, 777.018)" >SPICE</text>
<text fill="#cccccc"  xml:space="preserve" font-size="21.6954" style="font-family:Monospace;" transform="translate(1122.84, 811.787)" >.ac dec 20 1 1e12</text>
<text fill="#cccccc"  xml:space="preserve" font-size="21.6954" style="font-family:Monospace;" transform="translate(1122.84, 836.671)" >.save all</text>
<text fill="#cccccc"  xml:space="preserve" font-size="14.4636" transform="translate(434.424, 529.005)" >I2</text>
<text fill="#cccccc"  xml:space="preserve" font-size="14.4636" transform="translate(434.424, 549.866)" >1u</text>
<text fill="#cccccc"  xml:space="preserve" font-size="14.4636" transform="translate(573.497, 389.932)" >C2</text>
<text fill="#cccccc"  xml:space="preserve" font-size="14.4636" transform="translate(573.497, 410.793)" >2p</text>
<text fill="#aaaa00"  xml:space="preserve" font-size="14.4636" transform="translate(573.497, 431.653)" >m=1</text>
<text fill="#cccccc"  xml:space="preserve" font-size="14.4636" transform="translate(476.146, 381.047)" >X1</text>
<text fill="#cccccc"  xml:space="preserve" font-size="14.4636" transform="translate(601.311, 751.521)" >Vin</text>
<text fill="#cccccc"  xml:space="preserve" font-size="14.4636" transform="translate(601.311, 772.382)" >.5 AC 1</text>
<path class="l4" d="M684.755 701.69L684.755 715.597"/>
<path class="l4" d="M671.717 701.69L697.793 701.69"/>
<circle class="l4" cx="684.755" cy="701.69" r="4.86755" />
<path class="l4" d="M684.755 715.597L684.755 736.458"/>
<path class="l4" d="M684.755 778.18L684.755 799.041"/>
<path class="l4" d="M679.54 746.888L689.97 746.888"/>
<path class="l4" d="M684.755 741.673L684.755 752.104"/>
<path class="l4" d="M679.54 767.749L689.97 767.749"/>
<circle class="l4" cx="684.755" cy="757.319" r="20.8609" style="fill:none;"/>
<path class="l4" d="M684.755 799.041L684.755 805.994"/>
<path class="l4" d="M671.717 805.994L697.793 805.994"/>
<path class="l4" d="M684.755 824.248L697.793 805.994"/>
<path class="l4" d="M671.717 805.994L684.755 824.248"/>
<path class="l4" d="M1129.79 604.339L1185.42 604.339"/>
<path class="l4" d="M1129.79 618.246L1157.6 618.246"/>
<path class="l4" d="M1129.79 632.153L1185.42 632.153"/>
<path class="l4" d="M1129.79 646.06L1171.51 646.06"/>
<path class="l4" d="M1129.79 659.968L1171.51 659.968"/>
<path class="l4" d="M1129.79 673.875L1227.14 673.875"/>
<path class="l4" d="M1129.79 687.782L1157.6 687.782"/>
<path class="l4" d="M1129.79 590.431L1199.33 590.431"/>
<path class="l4" d="M1129.79 576.524L1157.6 576.524"/>
<path class="l4" d="M1241.05 576.524L1254.95 576.524"/>
<path class="l4" d="M1254.95 576.524L1254.95 715.597"/>
<path class="l4" d="M1129.79 715.597L1254.95 715.597"/>
<path class="l4" d="M1129.79 701.69L1129.79 715.597"/>
<path class="l4" d="M1241.05 562.617L1241.05 701.69"/>
<path class="l4" d="M1115.88 701.69L1241.05 701.69"/>
<path class="l4" d="M1115.88 562.617L1115.88 701.69"/>
<path class="l4" d="M1115.88 562.617L1241.05 562.617"/>
<path class="l4" d="M1101.97 785.133L1199.33 785.133"/>
<path class="l4" d="M1101.97 785.133L1101.97 812.948"/>
<path class="l4" d="M434.424 437.451L434.424 444.405"/>
<path class="l4" d="M421.386 444.405L447.462 444.405"/>
<path class="l4" d="M434.424 462.658L447.462 444.405"/>
<path class="l4" d="M421.386 444.405L434.424 462.658"/>
<path class="l4" d="M434.424 256.656L434.424 270.563"/>
<path class="l4" d="M421.386 256.656L447.462 256.656"/>
<circle class="l4" cx="434.424" cy="256.656" r="4.86755" />
<path class="l4" d="M406.609 493.08L406.609 513.941"/>
<path class="l4" d="M406.609 555.663L406.609 576.524"/>
<path class="l4" d="M406.609 519.156L406.609 550.448"/>
<path class="l4" d="M402.698 537.41L404.002 540.017"/>
<path class="l4" d="M404.002 540.017L405.305 543.277"/>
<path class="l4" d="M405.305 543.277L405.957 545.233"/>
<path class="l4" d="M405.957 545.233L406.609 549.144"/>
<path class="l4" d="M406.609 549.144L407.261 545.233"/>
<path class="l4" d="M407.261 545.233L407.913 543.277"/>
<path class="l4" d="M407.913 543.277L409.217 540.017"/>
<path class="l4" d="M409.217 540.017L410.521 537.41"/>
<circle class="l4" cx="406.609" cy="534.802" r="20.8609" style="fill:none;"/>
<path class="l4" d="M406.609 576.524L406.609 583.478"/>
<path class="l4" d="M393.571 583.478L419.647 583.478"/>
<path class="l4" d="M406.609 601.731L419.647 583.478"/>
<path class="l4" d="M393.571 583.478L406.609 601.731"/>
<path class="l4" d="M545.682 354.007L545.682 391.818"/>
<path class="l4" d="M524.821 391.818L566.543 391.818"/>
<path class="l4" d="M524.821 399.641L566.543 399.641"/>
<path class="l4" d="M545.682 399.641L545.682 437.451"/>
<path class="l4" d="M545.682 437.451L545.682 444.405"/>
<path class="l4" d="M532.644 444.405L558.72 444.405"/>
<path class="l4" d="M545.682 462.658L558.72 444.405"/>
<path class="l4" d="M532.644 444.405L545.682 462.658"/>
<path class="l4" d="M392.702 312.285L392.702 395.729"/>
<path class="l4" d="M392.702 312.285L476.146 354.007"/>
<path class="l4" d="M392.702 395.729L476.146 354.007"/>
<path class="l4" d="M434.424 374.868L434.424 437.451"/>
<path class="l4" d="M434.424 270.563L434.424 333.146"/>
<path class="l4" d="M476.146 354.007L503.96 354.007"/>
<path class="l4" d="M364.887 340.1L392.702 340.1"/>
<path class="l4" d="M364.887 367.915L392.702 367.915"/>
<path class="l4" d="M406.609 388.775L406.609 409.636"/>
<path class="l4" d="M406.609 333.146L406.609 347.054"/>
<path class="l4" d="M399.656 340.1L413.563 340.1"/>
<path class="l4" d="M399.656 367.915L413.563 367.915"/>
<path class="l4" d="M573.497 715.597L573.497 736.458"/>
<path class="l4" d="M573.497 778.18L573.497 799.041"/>
<path class="l4" d="M568.281 746.888L578.712 746.888"/>
<path class="l4" d="M573.497 741.673L573.497 752.104"/>
<path class="l4" d="M568.281 767.749L578.712 767.749"/>
<circle class="l4" cx="573.497" cy="757.319" r="20.8609" style="fill:none;"/>
<path class="l4" d="M573.497 799.041L573.497 805.994"/>
<path class="l4" d="M560.459 805.994L586.535 805.994"/>
<path class="l4" d="M573.497 824.248L586.535 805.994"/>
<path class="l4" d="M560.459 805.994L573.497 824.248"/>
<path class="l5" d="M684.06 714.902L685.45 714.902L685.45 716.292L684.06 716.292L684.06 714.902z"/>
<path class="l5" d="M684.06 714.902L685.45 714.902L685.45 716.292L684.06 716.292L684.06 714.902z"/>
<path class="l5" d="M684.06 798.345L685.45 798.345L685.45 799.736L684.06 799.736L684.06 798.345z"/>
<path class="l5" d="M684.06 798.345L685.45 798.345L685.45 799.736L684.06 799.736L684.06 798.345z"/>
<path class="l5" d="M433.728 436.756L435.119 436.756L435.119 438.146L433.728 438.146L433.728 436.756z"/>
<path class="l5" d="M363.149 338.362L366.626 338.362L366.626 341.838L363.149 341.838L363.149 338.362z"/>
<path class="l5" d="M433.728 269.868L435.119 269.868L435.119 271.259L433.728 271.259L433.728 269.868z"/>
<path class="l5" d="M405.914 492.385L407.305 492.385L407.305 493.776L405.914 493.776L405.914 492.385z"/>
<path class="l5" d="M405.914 575.829L407.305 575.829L407.305 577.219L405.914 577.219L405.914 575.829z"/>
<path class="l5" d="M405.914 575.829L407.305 575.829L407.305 577.219L405.914 577.219L405.914 575.829z"/>
<path class="l5" d="M571.758 352.269L575.235 352.269L575.235 355.746L571.758 355.746L571.758 352.269z"/>
<path class="l5" d="M544.987 353.312L546.377 353.312L546.377 354.703L544.987 354.703L544.987 353.312z"/>
<path class="l5" d="M544.987 436.756L546.377 436.756L546.377 438.146L544.987 438.146L544.987 436.756z"/>
<path class="l5" d="M544.987 436.756L546.377 436.756L546.377 438.146L544.987 438.146L544.987 436.756z"/>
<path class="l5" d="M500.483 350.53L507.437 350.53L507.437 357.484L500.483 357.484L500.483 350.53z"/>
<path class="l5" d="M430.947 433.974L437.901 433.974L437.901 440.928L430.947 440.928L430.947 433.974z"/>
<path class="l5" d="M430.947 267.087L437.901 267.087L437.901 274.04L430.947 274.04L430.947 267.087z"/>
<path class="l5" d="M361.41 336.623L368.364 336.623L368.364 343.577L361.41 343.577L361.41 336.623z"/>
<path class="l5" d="M361.41 364.438L368.364 364.438L368.364 371.391L361.41 371.391L361.41 364.438z"/>
<path class="l5" d="M403.132 406.16L410.086 406.16L410.086 413.113L403.132 413.113L403.132 406.16z"/>
<path class="l5" d="M572.801 714.902L574.192 714.902L574.192 716.292L572.801 716.292L572.801 714.902z"/>
<path class="l5" d="M572.801 798.345L574.192 798.345L574.192 799.736L572.801 799.736L572.801 798.345z"/>
<path class="l5" d="M572.801 798.345L574.192 798.345L574.192 799.736L572.801 799.736L572.801 798.345z"/>
<path class="l5" d="M571.758 713.859L575.235 713.859L575.235 717.335L571.758 717.335L571.758 713.859z"/>
<path class="l1" d="M503.96 354.007L531.775 354.007"/>
<path class="l1" d="M531.775 354.007L573.497 354.007"/>
<path class="l1" d="M406.609 409.636L406.609 493.08"/>
<path class="l1" d="M364.887 367.915L364.887 479.173"/>
<path class="l1" d="M364.887 479.173L517.868 479.173"/>
<path class="l1" d="M517.868 354.007L517.868 479.173"/>
<circle class="l1" cx="517.868" cy="354.007" r="5.56292"/>
</svg>
