<svg xmlns="http://www.w3.org/2000/svg" xmlns:xlink="http://www.w3.org/1999/xlink" width="900" height="503" version="1.1">
<style type="text/css">
.l0{
 fill: #000000;
  stroke: #000000;
  stroke-linecap:round;
  stroke-linejoin:round;
  stroke-width: 2.23518;
}
.l1{
 fill: #00ccee;
  stroke: #00ccee;
  stroke-linecap:round;
  stroke-linejoin:round;
  stroke-width: 2.23518;
}
.l2{
  fill: none;
  stroke: #3f3f3f;
  stroke-linecap:round;
  stroke-linejoin:round;
  stroke-width: 2.23518;
}
.l3{
 fill: #cccccc; fill-opacity: 0.5;
  stroke: #cccccc;
  stroke-linecap:round;
  stroke-linejoin:round;
  stroke-width: 2.23518;
}
.l4{
 fill: #88dd00;
  stroke: #88dd00;
  stroke-linecap:round;
  stroke-linejoin:round;
  stroke-width: 2.23518;
}
.l5{
 fill: #bb2200;
  stroke: #bb2200;
  stroke-linecap:round;
  stroke-linejoin:round;
  stroke-width: 2.23518;
}
.l6{
 fill: #00ccee; fill-opacity: 0.5;
  stroke: #00ccee;
  stroke-linecap:round;
  stroke-linejoin:round;
  stroke-width: 2.23518;
}
.l7{
 fill: #ff0000; fill-opacity: 0.5;
  stroke: #ff0000;
  stroke-linecap:round;
  stroke-linejoin:round;
  stroke-width: 2.23518;
}
.l8{
 fill: #ffff00; fill-opacity: 0.5;
  stroke: #ffff00;
  stroke-linecap:round;
  stroke-linejoin:round;
  stroke-width: 2.23518;
}
.l9{
 fill: #ffffff; fill-opacity: 0.5;
  stroke: #ffffff;
  stroke-linecap:round;
  stroke-linejoin:round;
  stroke-width: 2.23518;
}
.l10{
 fill: #ff00ff;
  stroke: #ff00ff;
  stroke-linecap:round;
  stroke-linejoin:round;
  stroke-width: 2.23518;
}
.l11{
 fill: #00ff00; fill-opacity: 0.5;
  stroke: #00ff00;
  stroke-linecap:round;
  stroke-linejoin:round;
  stroke-width: 2.23518;
}
.l12{
 fill: #0044dd; fill-opacity: 0.5;
  stroke: #0044dd;
  stroke-linecap:round;
  stroke-linejoin:round;
  stroke-width: 2.23518;
}
.l13{
 fill: #aaaa00; fill-opacity: 0.5;
  stroke: #aaaa00;
  stroke-linecap:round;
  stroke-linejoin:round;
  stroke-width: 2.23518;
}
.l14{
  fill: none;
  stroke: #aaccaa;
  stroke-linecap:round;
  stroke-linejoin:round;
  stroke-width: 2.23518;
}
.l15{
 fill: #ff7777; fill-opacity: 0.5;
  stroke: #ff7777;
  stroke-linecap:round;
  stroke-linejoin:round;
  stroke-width: 2.23518;
}
.l16{
 fill: #bfff81; fill-opacity: 0.5;
  stroke: #bfff81;
  stroke-linecap:round;
  stroke-linejoin:round;
  stroke-width: 2.23518;
}
.l17{
  fill: none;
  stroke: #00ffcc;
  stroke-linecap:round;
  stroke-linejoin:round;
  stroke-width: 2.23518;
}
.l18{
 fill: #ce0097; fill-opacity: 0.5;
  stroke: #ce0097;
  stroke-linecap:round;
  stroke-linejoin:round;
  stroke-width: 2.23518;
}
.l19{
  fill: none;
  stroke: #d2d46b;
  stroke-linecap:round;
  stroke-linejoin:round;
  stroke-width: 2.23518;
}
.l20{
  fill: none;
  stroke: #ef6158;
  stroke-linecap:round;
  stroke-linejoin:round;
  stroke-width: 2.23518;
}
.l21{
  fill: none;
  stroke: #fdb200;
  stroke-linecap:round;
  stroke-linejoin:round;
  stroke-width: 2.23518;
}
text {font-family: Sans-Serif;}
</style>
<rect class="l0" x="0" y="0" width="900" height="503"/>
<text fill="#00ccee"  xml:space="preserve" font-size="35.5145" transform="translate(320.24, 164.884)" >VP</text>
<text fill="#00ccee"  xml:space="preserve" font-size="35.5145" transform="translate(314.24, 371.845)" >VN</text>
<text fill="#00ccee"  xml:space="preserve" font-size="35.5145" transform="translate(478.018, 32.3803) rotate(270)" >A</text>
<text fill="#00ccee"  xml:space="preserve" font-size="35.5145" transform="translate(613.27, 271.588)" >Y</text>
<text fill="#cccccc"  xml:space="preserve" font-size="21.5239" transform="translate(522.319, 197.318) rotate(270)" >M1</text>
<text fill="#cccccc"  xml:space="preserve" font-size="21.5239" transform="translate(491.275, 273.318) rotate(270)" >pfet_01v8</text>
<text fill="#aaaa00"  xml:space="preserve" font-size="21.5239" transform="translate(460.231, 289.318) rotate(270)" >1 x 2 / 0.15</text>
<text fill="#cccccc"  xml:space="preserve" font-size="21.5239" transform="translate(491.275, 404.279) rotate(270)" >M2</text>
<text fill="#cccccc"  xml:space="preserve" font-size="21.5239" transform="translate(460.231, 480.279) rotate(270)" >nfet_01v8</text>
<text fill="#aaaa00"  xml:space="preserve" font-size="21.5239" transform="translate(429.187, 496.279) rotate(270)" >1 x 1 / 0.15</text>
<path class="l4" d="M499.441 153.97L530.486 153.97"/>
<path class="l4" d="M499.441 122.926L499.441 153.97"/>
<path class="l4" d="M425.712 122.926L511.083 122.926"/>
<path class="l4" d="M437.353 122.926L437.353 153.97"/>
<path class="l4" d="M406.309 153.97L437.353 153.97"/>
<path class="l4" d="M437.353 115.165L499.441 115.165"/>
<path class="l4" d="M468.397 91.8815L468.397 103.523"/>
<circle class="l4" cx="468.397" cy="109.344" r="5.82077" style="fill:none;"/>
<path class="l4" d="M499.441 360.931L530.486 360.931"/>
<path class="l4" d="M499.441 329.886L499.441 360.931"/>
<path class="l4" d="M425.712 329.886L511.083 329.886"/>
<path class="l4" d="M437.353 329.886L437.353 360.931"/>
<path class="l4" d="M406.309 360.931L437.353 360.931"/>
<path class="l4" d="M437.353 322.125L499.441 322.125"/>
<path class="l4" d="M468.397 298.842L468.397 322.125"/>
<path class="l5" d="M405.274 152.935L407.344 152.935L407.344 155.005L405.274 155.005L405.274 152.935z"/>
<path class="l5" d="M467.362 90.8467L469.432 90.8467L469.432 92.9163L467.362 92.9163L467.362 90.8467z"/>
<path class="l5" d="M529.451 152.935L531.52 152.935L531.52 155.005L529.451 155.005L529.451 152.935z"/>
<path class="l5" d="M529.451 359.896L531.52 359.896L531.52 361.965L529.451 361.965L529.451 359.896z"/>
<path class="l5" d="M467.362 297.807L469.432 297.807L469.432 299.877L467.362 299.877L467.362 297.807z"/>
<path class="l5" d="M405.274 359.896L407.344 359.896L407.344 361.965L405.274 361.965L405.274 359.896z"/>
<path class="l5" d="M399.842 153.97L406.309 153.97"/>
<path class="l5" d="M377.852 143.622L370.091 153.97L377.852 164.318L392.081 164.318L399.842 153.97L392.081 143.622L377.852 143.622"/>
<path class="l5" d="M403.722 151.383L408.896 151.383L408.896 156.557L403.722 156.557L403.722 151.383z"/>
<path class="l5" d="M399.842 360.931L406.309 360.931"/>
<path class="l5" d="M377.852 350.582L370.091 360.931L377.852 371.279L392.081 371.279L399.842 360.931L392.081 350.582L377.852 350.582"/>
<path class="l5" d="M403.722 358.343L408.896 358.343L408.896 363.518L403.722 363.518L403.722 358.343z"/>
<path class="l5" d="M468.397 60.8374L468.397 71.1854"/>
<path class="l5" d="M468.397 60.8374L478.745 53.0764L478.745 34.9673L468.397 42.7283L458.049 34.9673L458.049 53.0764L468.397 60.8374"/>
<path class="l5" d="M465.81 68.5984L470.984 68.5984L470.984 73.7724L465.81 73.7724L465.81 68.5984z"/>
<path class="l5" d="M571.878 257.45L589.987 257.45"/>
<path class="l5" d="M608.096 257.45L600.335 247.102L582.226 247.102L589.987 257.45L582.226 267.798L600.335 267.798L608.096 257.45"/>
<path class="l5" d="M569.291 254.863L574.465 254.863L574.465 260.037L569.291 260.037L569.291 254.863z"/>
<path class="l1" d="M468.397 91.8815L468.397 298.842"/>
<path class="l1" d="M530.486 153.97L530.486 360.931"/>
<path class="l1" d="M530.486 257.45L571.878 257.45"/>
<path class="l1" d="M468.397 71.1854L468.397 91.8815"/>
<circle class="l1" cx="530.486" cy="257.45" r="8.27843"/>
</svg>
